<?xml version="1.0" encoding="UTF-8"?>
<svg id="Layer_1" data-name="Layer 1" xmlns="http://www.w3.org/2000/svg" viewBox="0 0 233.82 85.53">
  <defs>
    <style>
      .cls-1 {
        fill: #00aeef;
      }

      .cls-1, .cls-2, .cls-3, .cls-4 {
        fill-rule: evenodd;
        stroke-width: 0px;
      }

      .cls-2 {
        fill: #004fa3;
      }

      .cls-3 {
        fill: #604c3b;
      }

      .cls-5 {
        stroke-width: .9px;
      }

      .cls-5, .cls-6 {
        fill: none;
        stroke: #006f53;
        stroke-miterlimit: 2.61;
      }

      .cls-4 {
        fill: #006f53;
      }

      .cls-6 {
        stroke-width: .61px;
      }
    </style>
  </defs>
  <path class="cls-3" d="m77.5,54.71c2.2.34,4.11.6,5.71.76,1.59.16,2.98.24,4.14.24,6.74,0,12.3-2.28,16.69-6.81,4.39-4.55,6.58-10.31,6.58-17.29s-2.17-12.88-6.53-17.23c-4.36-4.34-10.16-6.52-17.39-6.52-1.49,0-2.99.1-4.54.3-1.53.21-3.09.54-4.66.97v45.59h0Zm-13.03,7.32c1.28-1.13,2.17-2.41,2.69-3.84.52-1.43.79-3.72.79-6.89V12.13c0-3.17-.27-5.46-.79-6.87-.52-1.4-1.41-2.66-2.69-3.76h21.1c5.67,0,10.34.55,14.03,1.65,3.69,1.12,7.1,2.92,10.24,5.42,3.53,2.78,6.16,6.06,7.93,9.8,1.77,3.75,2.66,7.91,2.66,12.5,0,4.17-.65,8-1.98,11.56-1.32,3.54-3.3,6.75-5.95,9.63-3.23,3.51-7.16,6.06-11.78,7.63-4.64,1.56-10.64,2.35-18.02,2.35h-18.23Z"/>
  <path class="cls-3" d="m176.43,49.87l-4.54,10.91c-2.84.92-5.52,1.62-8.02,2.08-2.5.46-4.88.7-7.14.7-3.38,0-6.67-.43-9.86-1.31-3.2-.86-6.22-2.16-9.06-3.88-4.54-2.69-8.06-6.4-10.59-11.11-2.53-4.7-3.79-9.89-3.79-15.56,0-4.24.92-8.36,2.75-12.38,1.83-4.02,4.42-7.57,7.8-10.68,3.08-2.81,6.59-4.95,10.55-6.43,3.96-1.47,8.17-2.2,12.65-2.2,2.11,0,4.34.19,6.7.59,2.34.39,4.84.98,7.51,1.8v9.72c-2.74-1.46-5.31-2.53-7.77-3.23-2.44-.7-4.82-1.04-7.14-1.04-6.77,0-12.2,2.1-16.28,6.28-4.09,4.18-6.13,9.73-6.13,16.65,0,7.59,2.11,13.72,6.34,18.39,4.24,4.66,9.79,6.99,16.68,6.99,2.83,0,5.82-.52,9-1.55,3.18-1.03,6.64-2.6,10.36-4.73h0Z"/>
  <path class="cls-3" d="m190.1,51.3c0,3.05.27,5.31.8,6.78.54,1.46,1.46,2.78,2.77,3.94h-16.6c1.28-1.16,2.19-2.48,2.74-3.94.55-1.47.83-3.73.83-6.78V12.13c0-3.05-.28-5.3-.83-6.75-.55-1.46-1.46-2.75-2.74-3.88h20.96c6,0,10.82,1.43,14.49,4.27,3.67,2.84,5.52,6.55,5.52,11.11,0,3.32-1.1,6.23-3.32,8.76-2.2,2.53-5.62,4.75-10.28,6.67l15.74,20.96c.92,1.25,2.04,2.57,3.35,3.97,1.31,1.38,2.81,2.84,4.49,4.36l-4.7.43h-.74c-2.22,0-4.36-.58-6.46-1.74-2.08-1.16-3.87-2.77-5.31-4.79l-18.05-24.89c5.37-1.19,9.3-2.83,11.78-4.9,2.48-2.08,3.73-4.76,3.73-8.05,0-3.05-1.07-5.53-3.2-7.45-2.14-1.92-4.94-2.87-8.39-2.87-.79,0-1.74.06-2.84.19s-2.35.33-3.75.6v43.18h0Z"/>
  <path class="cls-2" d="m3.65,81.24c-.32-.1-.59-.33-.81-.67-.22-.35-.43-.86-.62-1.55l-1.5-5.41c-.12-.44-.24-.81-.34-1.09-.11-.28-.23-.55-.37-.8h1.53c0,.16.02.3.04.43.02.13.04.25.07.37l1.81,6.64,1.71-5.53c.05-.17.09-.34.12-.51.03-.17.05-.33.05-.47,0-.12-.03-.26-.09-.4-.06-.14-.15-.31-.29-.52h1.71l-3.01,9.52h0Z"/>
  <path class="cls-2" d="m6.56,72.76c0-.23.06-.42.19-.58.13-.16.28-.24.47-.24s.33.08.45.24c.13.16.19.35.19.58s-.06.43-.18.59c-.12.16-.28.24-.46.24s-.34-.08-.47-.24c-.13-.16-.19-.35-.19-.58h0Zm1.2,7.03c0,.29.03.52.09.71.06.19.16.36.29.5h-1.74c.13-.14.23-.31.29-.5.06-.19.09-.43.09-.71v-4.05c0-.29-.03-.53-.09-.73-.06-.2-.16-.36-.28-.51.31,0,.57-.02.79-.05.22-.02.41-.06.58-.1v5.43h0Z"/>
  <path class="cls-2" d="m12.04,75.71c-.08-.08-.17-.13-.25-.16-.09-.03-.18-.05-.28-.05-.38,0-.67.16-.86.48-.2.32-.3.78-.3,1.38v2.42c0,.29.03.52.09.71.06.19.15.36.28.5h-1.75c.13-.14.23-.31.28-.5.06-.19.09-.43.09-.71v-4.05c0-.29-.03-.53-.09-.73-.06-.2-.15-.36-.28-.51h.12c.18,0,.36-.01.55-.04.19-.02.41-.06.64-.11l.08,1.04c.16-.35.34-.6.54-.77.2-.17.43-.25.7-.25.06,0,.13,0,.2.01.07,0,.15.02.25.05v1.28h0Z"/>
  <path class="cls-2" d="m16.36,76.77c0-.46-.13-.85-.4-1.16-.27-.31-.6-.47-.99-.47-.37,0-.67.13-.89.38-.22.26-.33.6-.33,1.01,0,.47.13.87.41,1.19.27.32.6.48.99.48.35,0,.64-.14.87-.41.23-.27.34-.61.34-1.03h0Zm1.97-2.57l-.33,1.04s-.06,0-.1.01c-.04,0-.1,0-.19,0-.15,0-.33,0-.53-.03-.2-.02-.43-.05-.69-.09.34.23.58.48.74.76.16.28.24.6.24.96,0,.42-.1.79-.31,1.12-.21.33-.5.58-.88.77-.31.16-.64.26-1,.31-.03,0-.05,0-.06,0h-.03c-.39.07-.58.21-.58.4,0,.1.03.17.09.21.06.04.16.06.3.06.11,0,.26,0,.44-.02.18-.01.3-.02.36-.02.75,0,1.35.19,1.82.56.46.37.69.85.69,1.44,0,.74-.3,1.36-.9,1.83-.6.48-1.37.71-2.32.71-.86,0-1.57-.19-2.14-.57-.56-.38-.84-.85-.84-1.41,0-.32.1-.59.3-.8.2-.21.45-.32.75-.32.07,0,.15.01.24.04.09.03.2.06.32.12-.15.03-.27.1-.35.22-.08.12-.12.28-.12.49,0,.39.19.74.58,1.03.39.29.86.43,1.42.43s1.03-.16,1.41-.48c.38-.32.57-.7.57-1.15s-.16-.76-.49-.99c-.32-.23-.79-.34-1.41-.34-.05,0-.19,0-.43.01-.24,0-.45.01-.63.01-.28,0-.5-.06-.66-.19-.15-.13-.23-.31-.23-.55,0-.22.07-.41.22-.57.15-.16.36-.28.65-.36-.49-.13-.87-.39-1.16-.8-.28-.4-.43-.87-.43-1.41,0-.73.23-1.31.7-1.74.46-.43,1.1-.65,1.91-.65.2,0,.5.01.89.04.39.02.67.04.86.04.16,0,.34-.01.55-.04.21-.02.46-.06.75-.12h0Z"/>
  <path class="cls-2" d="m18.78,72.76c0-.23.06-.42.19-.58.13-.16.28-.24.47-.24s.33.08.45.24c.13.16.19.35.19.58s-.06.43-.18.59c-.12.16-.28.24-.46.24s-.34-.08-.47-.24c-.13-.16-.19-.35-.19-.58h0Zm1.2,7.03c0,.29.03.52.09.71.06.19.16.36.29.5h-1.74c.13-.14.23-.31.29-.5.06-.19.09-.43.09-.71v-4.05c0-.29-.03-.53-.09-.73-.06-.2-.16-.36-.28-.51.31,0,.57-.02.79-.05.22-.02.41-.06.58-.1v5.43h0Z"/>
  <path class="cls-2" d="m22.57,79.78c0,.29.03.52.09.71.06.19.15.36.28.5h-1.75c.13-.14.23-.31.28-.5.06-.19.09-.43.09-.71v-4.05c0-.29-.03-.53-.09-.73-.06-.2-.15-.36-.28-.51h.12c.18,0,.36-.01.55-.04.19-.02.41-.06.64-.11l.05,1.04c.27-.36.54-.62.81-.78.27-.17.56-.25.87-.25.58,0,1.05.22,1.41.66.36.44.54,1.01.54,1.72v3.05c0,.29.03.52.09.71.06.19.15.36.28.5h-1.76c.13-.14.23-.31.29-.5.06-.19.09-.43.09-.71v-2.33c0-.71-.1-1.22-.31-1.55-.21-.32-.53-.48-.98-.48s-.79.15-1,.44c-.2.3-.3.79-.3,1.49v2.42h0Z"/>
  <path class="cls-2" d="m27.53,72.76c0-.23.06-.42.19-.58.13-.16.28-.24.47-.24s.33.08.45.24c.13.16.19.35.19.58s-.06.43-.18.59c-.12.16-.28.24-.46.24s-.34-.08-.47-.24c-.13-.16-.19-.35-.19-.58h0Zm1.2,7.03c0,.29.03.52.09.71.06.19.16.36.29.5h-1.74c.13-.14.23-.31.29-.5.06-.19.09-.43.09-.71v-4.05c0-.29-.03-.53-.09-.73-.06-.2-.16-.36-.28-.51.31,0,.57-.02.79-.05.22-.02.41-.06.58-.1v5.43h0Z"/>
  <path class="cls-2" d="m35.15,80.1l-.45.88c-.53,0-.91-.12-1.13-.36-.23-.24-.34-.64-.34-1.19v-1.92c-.06.02-.14.05-.26.09-1.32.45-1.98.94-1.98,1.47,0,.34.11.61.33.82.22.21.51.31.88.31.1,0,.22-.01.34-.04.13-.02.27-.06.43-.11l-.59.99c-.13.04-.25.07-.36.09-.11.02-.21.03-.32.03-.53,0-.97-.19-1.31-.58-.35-.39-.52-.88-.52-1.46,0-.22.03-.44.1-.64.06-.2.16-.38.28-.54.22-.28.7-.52,1.43-.72.15-.04.27-.07.35-.1.49-.14.81-.27.97-.4.16-.13.24-.3.24-.52,0-.28-.11-.51-.32-.68-.21-.17-.5-.25-.86-.25-.19,0-.4.04-.63.13-.23.08-.49.21-.76.38l.7-1.4c.18-.03.35-.06.52-.07.16-.02.31-.03.45-.03.27,0,.51.04.73.12.22.08.41.2.58.35.22.2.37.45.46.75.09.3.14.76.14,1.39v1.57c0,.72.06,1.17.19,1.34.12.17.37.27.75.31h0Z"/>
  <path class="cls-2" d="m39.66,79.88c.27.05.5.09.7.12.2.02.36.04.51.04.83,0,1.51-.35,2.05-1.05.54-.7.81-1.58.81-2.65s-.27-1.98-.8-2.64-1.25-1-2.13-1c-.18,0-.37.02-.56.05-.19.03-.38.08-.57.15v6.99h0Zm-1.6,1.12c.16-.17.27-.37.33-.59.06-.22.1-.57.1-1.06v-6.01c0-.49-.03-.84-.1-1.05-.06-.21-.17-.41-.33-.58h2.59c.7,0,1.27.08,1.72.25.45.17.87.45,1.26.83.43.43.76.93.97,1.5.22.58.33,1.21.33,1.92,0,.64-.08,1.23-.24,1.77-.16.54-.41,1.04-.73,1.48-.4.54-.88.93-1.45,1.17-.57.24-1.3.36-2.21.36h-2.24Z"/>
  <path class="cls-2" d="m47.01,76.68h2.78c-.02-.46-.16-.84-.41-1.13-.25-.29-.56-.44-.93-.44-.4,0-.73.14-.98.42-.26.28-.41.66-.46,1.15h0Zm-.07.91c.03.81.23,1.46.62,1.93.39.48.89.72,1.52.72.28,0,.57-.06.88-.17.31-.11.64-.29,1-.52l-.58,1.26c-.31.14-.6.25-.87.32-.27.07-.52.11-.75.11-.87,0-1.58-.33-2.14-.98-.56-.65-.84-1.49-.84-2.49s.26-1.88.77-2.54c.52-.66,1.17-.99,1.98-.99.74,0,1.32.3,1.76.91.43.6.66,1.43.67,2.46h-4.02Z"/>
  <path class="cls-2" d="m51.44,83.85c.13-.14.23-.31.28-.5.06-.19.09-.43.09-.71v-6.9c0-.29-.03-.53-.09-.73-.06-.2-.15-.36-.28-.51h.14c.19,0,.39-.01.58-.04.2-.02.4-.06.6-.11l.05,1.04c.27-.36.56-.64.88-.82.32-.18.66-.27,1.02-.27.72,0,1.33.32,1.82.95.49.64.74,1.42.74,2.35,0,.61-.09,1.17-.29,1.67-.19.5-.46.92-.82,1.25-.24.22-.49.39-.75.5-.26.11-.55.16-.85.16-.13,0-.26-.01-.4-.03-.14-.02-.28-.05-.42-.09l-.65-1.17c.22.13.43.22.62.28.19.06.37.09.53.09.59,0,1.05-.21,1.38-.64.33-.43.49-1.03.49-1.79s-.16-1.34-.49-1.81c-.33-.47-.74-.71-1.25-.71-.21,0-.42.05-.61.14-.19.09-.36.23-.52.41-.16.18-.27.4-.33.67-.06.27-.1.73-.1,1.37v4.75c0,.28.03.52.09.71.06.19.15.36.28.5h-1.76Z"/>
  <path class="cls-2" d="m63.23,80.1l-.45.88c-.53,0-.91-.12-1.13-.36-.23-.24-.34-.64-.34-1.19v-1.92c-.06.02-.14.05-.26.09-1.32.45-1.98.94-1.98,1.47,0,.34.11.61.33.82.22.21.51.31.88.31.1,0,.22-.01.34-.04.13-.02.27-.06.43-.11l-.59.99c-.13.04-.25.07-.36.09-.11.02-.21.03-.32.03-.53,0-.97-.19-1.31-.58-.35-.39-.52-.88-.52-1.46,0-.22.03-.44.1-.64.06-.2.16-.38.28-.54.22-.28.7-.52,1.43-.72.15-.04.27-.07.35-.1.49-.14.81-.27.97-.4.16-.13.24-.3.24-.52,0-.28-.11-.51-.32-.68-.21-.17-.5-.25-.86-.25-.19,0-.4.04-.63.13-.23.08-.49.21-.76.38l.7-1.4c.18-.03.35-.06.52-.07.16-.02.31-.03.45-.03.27,0,.51.04.73.12.22.08.41.2.58.35.22.2.37.45.46.75.09.3.14.76.14,1.39v1.57c0,.72.06,1.17.19,1.34.12.17.37.27.75.31h0Z"/>
  <path class="cls-2" d="m66.82,75.71c-.08-.08-.17-.13-.25-.16-.09-.03-.18-.05-.28-.05-.38,0-.67.16-.86.48-.2.32-.3.78-.3,1.38v2.42c0,.29.03.52.09.71.06.19.15.36.28.5h-1.75c.13-.14.23-.31.28-.5.06-.19.09-.43.09-.71v-4.05c0-.29-.03-.53-.09-.73-.06-.2-.15-.36-.28-.51h.12c.18,0,.36-.01.55-.04.19-.02.41-.06.64-.11l.08,1.04c.16-.35.34-.6.54-.77.2-.17.43-.25.7-.25.06,0,.13,0,.2.01.07,0,.15.02.25.05v1.28h0Z"/>
  <path class="cls-2" d="m68.3,75.45h-.71v-.48c.43-.05.76-.29,1.01-.74.24-.44.37-1.04.39-1.81h.32v2.08h1.55v1.22c-.09-.09-.19-.16-.31-.2-.12-.04-.28-.06-.49-.06h-.75v3.16c0,.58.08,1,.23,1.28.16.27.4.41.72.41.07,0,.15-.01.24-.03.08-.02.16-.04.24-.06l-.52.96h-.03c-.14.02-.25.03-.31.03-.53,0-.92-.16-1.18-.5-.26-.33-.4-.82-.4-1.46v-3.78h0Z"/>
  <path class="cls-2" d="m72.97,79.78c0,.29.03.52.09.71.06.19.15.36.28.5h-1.75c.13-.14.23-.31.28-.5.06-.19.09-.43.09-.71v-4.05c0-.29-.03-.53-.09-.73-.06-.2-.15-.36-.28-.51h.12c.18,0,.36-.01.55-.04.19-.02.41-.06.64-.11l.05,1.04c.26-.35.53-.61.81-.78.27-.17.56-.25.87-.25.36,0,.69.09.98.28.29.19.55.47.79.86.32-.39.63-.68.93-.86.29-.18.6-.27.9-.27.57,0,1.04.22,1.4.65.36.44.54,1.01.54,1.72v3.05c0,.29.03.52.09.71.06.19.16.36.29.5h-1.75c.13-.14.23-.31.29-.5.06-.19.09-.43.09-.71v-2.33c0-.71-.1-1.22-.31-1.55-.21-.32-.53-.48-.98-.48s-.79.15-1,.44c-.2.3-.3.79-.3,1.49v2.42c0,.29.03.52.09.71.06.19.15.36.28.5h-1.76c.13-.14.23-.31.29-.5.06-.19.09-.43.09-.71v-2.33c0-.71-.1-1.22-.31-1.55-.21-.32-.53-.48-.98-.48s-.79.15-1,.44c-.2.3-.3.79-.3,1.49v2.42h0Z"/>
  <path class="cls-2" d="m82.19,76.68h2.78c-.02-.46-.16-.84-.41-1.13-.25-.29-.56-.44-.93-.44-.4,0-.73.14-.98.42-.26.28-.41.66-.46,1.15h0Zm-.07.91c.03.81.23,1.46.62,1.93.39.48.89.72,1.52.72.28,0,.57-.06.88-.17.31-.11.64-.29,1-.52l-.58,1.26c-.31.14-.6.25-.87.32-.27.07-.52.11-.75.11-.87,0-1.58-.33-2.14-.98-.56-.65-.84-1.49-.84-2.49s.26-1.88.77-2.54c.52-.66,1.17-.99,1.98-.99.74,0,1.32.3,1.76.91.43.6.66,1.43.67,2.46h-4.02Z"/>
  <path class="cls-2" d="m87.88,79.78c0,.29.03.52.09.71.06.19.15.36.28.5h-1.75c.13-.14.23-.31.28-.5.06-.19.09-.43.09-.71v-4.05c0-.29-.03-.53-.09-.73-.06-.2-.15-.36-.28-.51h.12c.18,0,.36-.01.55-.04.19-.02.41-.06.64-.11l.05,1.04c.27-.36.54-.62.81-.78.27-.17.56-.25.87-.25.58,0,1.05.22,1.41.66.36.44.54,1.01.54,1.72v3.05c0,.29.03.52.09.71.06.19.15.36.28.5h-1.76c.13-.14.23-.31.29-.5.06-.19.09-.43.09-.71v-2.33c0-.71-.1-1.22-.31-1.55-.21-.32-.53-.48-.98-.48s-.79.15-1,.44c-.2.3-.3.79-.3,1.49v2.42h0Z"/>
  <path class="cls-2" d="m92.77,75.45h-.71v-.48c.43-.05.76-.29,1.01-.74.24-.44.37-1.04.39-1.81h.32v2.08h1.55v1.22c-.09-.09-.19-.16-.31-.2-.12-.04-.28-.06-.49-.06h-.75v3.16c0,.58.08,1,.23,1.28.16.27.4.41.72.41.07,0,.15-.01.24-.03.08-.02.16-.04.24-.06l-.52.96h-.03c-.14.02-.25.03-.31.03-.53,0-.92-.16-1.18-.5-.26-.33-.4-.82-.4-1.46v-3.78h0Z"/>
  <path class="cls-2" d="m99.22,77.55c0,.81.17,1.47.5,1.97.33.5.77.75,1.3.75.5,0,.91-.22,1.23-.67.32-.45.48-1.03.48-1.74,0-.76-.17-1.39-.51-1.88-.34-.5-.77-.74-1.3-.74-.49,0-.9.22-1.22.66-.32.44-.48.99-.48,1.65h0Zm-1.15.27c0-.49.07-.95.22-1.38.15-.43.36-.81.65-1.15.27-.32.6-.57.96-.75.37-.18.75-.27,1.14-.27s.78.08,1.11.25c.33.17.63.42.9.75.26.33.47.7.6,1.11.14.41.21.84.21,1.29,0,.5-.07.96-.22,1.39-.15.43-.36.81-.65,1.15-.27.31-.59.56-.96.74s-.75.26-1.14.26c-.42,0-.79-.08-1.12-.24-.33-.16-.63-.41-.9-.75-.26-.33-.47-.7-.61-1.12-.14-.42-.21-.85-.21-1.29h0Z"/>
  <path class="cls-2" d="m105.64,79.78c0,.29.03.52.09.71.06.19.15.36.28.5h-1.75c.13-.14.23-.31.29-.5.06-.19.09-.43.09-.71v-4.34h-.59l.59-.95s0-.09,0-.16c0-.07,0-.12,0-.15,0-.92.19-1.61.58-2.06.38-.45.97-.68,1.75-.68.09,0,.19,0,.3.01.1,0,.21.02.31.03l-.6.95c-.11-.03-.22-.05-.31-.07-.09-.02-.18-.02-.25-.02-.27,0-.46.1-.58.29-.11.2-.17.53-.17,1.02v.83h1.31v.95h-1.31v4.34h0Z"/>
  <path class="cls-2" d="m115.79,79.14l-.56,1.67c-.35.14-.68.25-.98.32-.31.07-.6.11-.88.11-.41,0-.82-.07-1.21-.2-.39-.13-.76-.33-1.11-.6-.56-.41-.99-.98-1.3-1.7-.31-.72-.47-1.52-.47-2.39,0-.65.11-1.28.34-1.9.22-.62.54-1.16.96-1.64.38-.43.81-.76,1.29-.99.49-.23,1-.34,1.55-.34.26,0,.53.03.82.09.29.06.59.15.92.28v1.49c-.34-.22-.65-.39-.95-.49-.3-.11-.59-.16-.88-.16-.83,0-1.5.32-2,.96-.5.64-.75,1.49-.75,2.55,0,1.16.26,2.1.78,2.82.52.71,1.2,1.07,2.05,1.07.35,0,.71-.08,1.1-.24.39-.16.81-.4,1.27-.73h0Z"/>
  <path class="cls-2" d="m117.32,77.55c0,.81.17,1.47.5,1.97.33.5.77.75,1.3.75.5,0,.91-.22,1.23-.67.32-.45.48-1.03.48-1.74,0-.76-.17-1.39-.51-1.88-.34-.5-.77-.74-1.3-.74-.49,0-.9.22-1.22.66-.32.44-.48.99-.48,1.65h0Zm-1.15.27c0-.49.07-.95.22-1.38.15-.43.36-.81.65-1.15.27-.32.6-.57.96-.75.37-.18.75-.27,1.14-.27s.78.08,1.11.25c.33.17.63.42.9.75.26.33.47.7.6,1.11.14.41.21.84.21,1.29,0,.5-.07.96-.22,1.39-.15.43-.36.81-.65,1.15-.27.31-.59.56-.96.74s-.75.26-1.14.26c-.42,0-.79-.08-1.12-.24-.33-.16-.63-.41-.9-.75-.26-.33-.47-.7-.61-1.12-.14-.42-.21-.85-.21-1.29h0Z"/>
  <path class="cls-2" d="m123.78,79.78c0,.29.03.52.09.71.06.19.15.36.28.5h-1.75c.13-.14.23-.31.28-.5.06-.19.09-.43.09-.71v-4.05c0-.29-.03-.53-.09-.73-.06-.2-.15-.36-.28-.51h.12c.18,0,.36-.01.55-.04.19-.02.41-.06.64-.11l.05,1.04c.27-.36.54-.62.81-.78.27-.17.56-.25.87-.25.58,0,1.05.22,1.41.66.36.44.54,1.01.54,1.72v3.05c0,.29.03.52.09.71.06.19.15.36.28.5h-1.76c.13-.14.23-.31.29-.5.06-.19.09-.43.09-.71v-2.33c0-.71-.1-1.22-.31-1.55-.21-.32-.53-.48-.98-.48s-.79.15-1,.44c-.2.3-.3.79-.3,1.49v2.42h0Z"/>
  <path class="cls-2" d="m128.45,80.87l-.43-1.48c.4.34.78.59,1.12.75.34.16.67.25.97.25.38,0,.69-.09.92-.28.23-.18.34-.43.34-.74,0-.38-.39-.77-1.17-1.16-.19-.09-.34-.17-.44-.23-.46-.24-.79-.51-1-.8-.21-.29-.31-.64-.31-1.04,0-.57.18-1.03.55-1.37.36-.34.86-.51,1.49-.51.2,0,.43.02.67.06.24.04.5.09.76.16v1.16c-.27-.17-.53-.3-.79-.39-.26-.09-.5-.13-.74-.13-.27,0-.49.07-.65.22-.16.15-.24.34-.24.58,0,.34.32.66.97.96.28.12.5.23.66.32.46.25.8.52,1.02.81.22.29.33.63.33,1.02,0,.67-.23,1.2-.69,1.61-.46.4-1.08.61-1.86.61-.28,0-.54-.03-.78-.09-.24-.06-.48-.16-.7-.29h0Z"/>
  <path class="cls-2" d="m134.46,76.68h2.78c-.02-.46-.16-.84-.41-1.13-.25-.29-.56-.44-.93-.44-.4,0-.73.14-.98.42-.26.28-.41.66-.46,1.15h0Zm-.07.91c.03.81.23,1.46.62,1.93.39.48.89.72,1.52.72.28,0,.57-.06.88-.17.31-.11.64-.29,1-.52l-.58,1.26c-.31.14-.6.25-.87.32-.27.07-.52.11-.75.11-.87,0-1.58-.33-2.14-.98-.56-.65-.84-1.49-.84-2.49s.26-1.88.77-2.54c.52-.66,1.17-.99,1.98-.99.74,0,1.32.3,1.76.91.43.6.66,1.43.67,2.46h-4.02Z"/>
  <path class="cls-2" d="m142.29,75.71c-.08-.08-.17-.13-.25-.16-.09-.03-.18-.05-.28-.05-.38,0-.67.16-.86.48-.2.32-.3.78-.3,1.38v2.42c0,.29.03.52.09.71.06.19.15.36.28.5h-1.75c.13-.14.23-.31.28-.5.06-.19.09-.43.09-.71v-4.05c0-.29-.03-.53-.09-.73-.06-.2-.15-.36-.28-.51h.12c.18,0,.36-.01.55-.04.19-.02.41-.06.64-.11l.08,1.04c.16-.35.34-.6.54-.77.2-.17.43-.25.7-.25.06,0,.13,0,.2.01.07,0,.15.02.25.05v1.28h0Z"/>
  <path class="cls-2" d="m148.35,74.5l-2.4,6.73c-.27-.11-.5-.28-.69-.53-.18-.24-.38-.67-.59-1.27l-1.18-3.52c-.13-.37-.25-.66-.37-.86-.12-.2-.26-.38-.43-.55h.16c.31,0,.56-.02.76-.06.2-.04.35-.1.45-.18l1.63,5.18,1.27-3.54c.06-.17.11-.31.13-.41.02-.1.03-.2.03-.28,0-.11-.03-.22-.07-.33-.05-.11-.14-.24-.26-.38h1.55Z"/>
  <path class="cls-2" d="m153.17,80.1l-.45.88c-.53,0-.91-.12-1.13-.36-.23-.24-.34-.64-.34-1.19v-1.92c-.06.02-.14.05-.26.09-1.32.45-1.98.94-1.98,1.47,0,.34.11.61.33.82.22.21.51.31.88.31.1,0,.22-.01.34-.04.13-.02.27-.06.43-.11l-.59.99c-.13.04-.25.07-.36.09-.11.02-.21.03-.32.03-.53,0-.97-.19-1.31-.58-.34-.39-.52-.88-.52-1.46,0-.22.03-.44.1-.64.06-.2.16-.38.28-.54.22-.28.7-.52,1.43-.72.15-.04.27-.07.35-.1.49-.14.81-.27.97-.4.16-.13.24-.3.24-.52,0-.28-.11-.51-.32-.68-.21-.17-.5-.25-.86-.25-.19,0-.4.04-.63.13-.23.08-.49.21-.76.38l.7-1.4c.18-.03.35-.06.52-.07.16-.02.31-.03.45-.03.27,0,.51.04.73.12.22.08.41.2.58.35.22.2.37.45.46.75.09.3.14.76.14,1.39v1.57c0,.72.06,1.17.19,1.34.12.17.37.27.75.31h0Z"/>
  <path class="cls-2" d="m153.83,75.45h-.71v-.48c.43-.05.76-.29,1.01-.74.24-.44.37-1.04.39-1.81h.32v2.08h1.55v1.22c-.09-.09-.19-.16-.31-.2-.12-.04-.28-.06-.49-.06h-.75v3.16c0,.58.08,1,.23,1.28.16.27.4.41.72.41.07,0,.15-.01.24-.03.08-.02.16-.04.24-.06l-.52.96h-.03c-.14.02-.25.03-.31.03-.53,0-.92-.16-1.18-.5-.26-.33-.4-.82-.4-1.46v-3.78h0Z"/>
  <path class="cls-2" d="m157.34,72.76c0-.23.06-.42.19-.58.13-.16.28-.24.47-.24s.33.08.45.24c.13.16.19.35.19.58s-.06.43-.18.59c-.12.16-.28.24-.46.24s-.34-.08-.47-.24c-.13-.16-.19-.35-.19-.58h0Zm1.2,7.03c0,.29.03.52.09.71.06.19.16.36.29.5h-1.74c.13-.14.23-.31.29-.5.06-.19.09-.43.09-.71v-4.05c0-.29-.03-.53-.09-.73-.06-.2-.16-.36-.28-.51.31,0,.57-.02.79-.05.22-.02.41-.06.58-.1v5.43h0Z"/>
  <path class="cls-2" d="m160.53,77.55c0,.81.17,1.47.5,1.97.33.5.77.75,1.3.75.5,0,.91-.22,1.23-.67.32-.45.48-1.03.48-1.74,0-.76-.17-1.39-.51-1.88-.34-.5-.77-.74-1.3-.74-.49,0-.9.22-1.22.66-.32.44-.48.99-.48,1.65h0Zm-1.15.27c0-.49.07-.95.22-1.38.15-.43.36-.81.65-1.15.27-.32.6-.57.96-.75.37-.18.75-.27,1.14-.27s.78.08,1.11.25c.33.17.63.42.9.75.26.33.47.7.6,1.11.14.41.21.84.21,1.29,0,.5-.07.96-.22,1.39-.15.43-.36.81-.65,1.15-.27.31-.59.56-.96.74-.37.18-.75.26-1.14.26-.42,0-.79-.08-1.12-.24-.33-.16-.63-.41-.9-.75-.26-.33-.47-.7-.61-1.12-.14-.42-.21-.85-.21-1.29h0Z"/>
  <path class="cls-2" d="m167.1,79.78c0,.29.03.52.09.71.06.19.15.36.28.5h-1.75c.13-.14.23-.31.28-.5.06-.19.09-.43.09-.71v-4.05c0-.29-.03-.53-.09-.73-.06-.2-.15-.36-.28-.51h.12c.18,0,.36-.01.55-.04.19-.02.41-.06.64-.11l.05,1.04c.27-.36.54-.62.81-.78.27-.17.56-.25.87-.25.58,0,1.05.22,1.41.66.36.44.54,1.01.54,1.72v3.05c0,.29.03.52.09.71.06.19.15.36.28.5h-1.76c.13-.14.23-.31.29-.5.06-.19.09-.43.09-.71v-2.33c0-.71-.1-1.22-.31-1.55-.21-.32-.53-.48-.98-.48s-.79.15-1,.44c-.2.3-.3.79-.3,1.49v2.42h0Z"/>
  <path class="cls-2" d="m176.44,74.66c.25-.21.43-.42.55-.65.12-.23.18-.47.18-.73s-.07-.47-.21-.64-.33-.25-.55-.25c-.2,0-.37.08-.51.25-.13.17-.2.37-.2.63,0,.18.06.39.18.61.12.22.3.49.57.79h0Zm-.88.75c-.29-.4-.5-.76-.64-1.09-.14-.33-.21-.64-.21-.92,0-.53.17-.97.52-1.33.34-.36.77-.53,1.29-.53.44,0,.81.18,1.12.54.31.36.46.79.46,1.31,0,.34-.08.69-.25,1.04-.17.35-.41.71-.75,1.07l2.62,3.13c.27.32.63.68,1.08,1.09.46.41.97.84,1.55,1.27h-1.02c-.43,0-.83-.11-1.19-.32-.36-.22-.75-.58-1.16-1.09-.35.54-.73.94-1.15,1.21-.42.27-.87.4-1.36.4-.7,0-1.28-.26-1.75-.79-.47-.53-.7-1.19-.7-1.98,0-.5.12-.99.36-1.46.24-.48.64-1,1.18-1.56h0Zm2.88,3.55l-2.19-2.7c-.36.36-.62.71-.78,1.04-.16.33-.25.68-.25,1.04,0,.52.14.96.43,1.31.28.35.64.52,1.06.52.34,0,.65-.1.93-.29.28-.2.55-.5.81-.92h0Z"/>
  <path class="cls-2" d="m185.7,79.36c0,.47.03.81.1,1.04.07.22.18.43.34.6h-2.04c.16-.18.27-.38.34-.6.07-.23.1-.57.1-1.04v-6.01c0-.47-.03-.81-.1-1.04-.07-.22-.18-.42-.34-.6h2.57c.74,0,1.33.22,1.78.65.45.44.68,1,.68,1.7,0,.51-.13.96-.41,1.34-.27.39-.69.73-1.26,1.02l1.93,3.21c.11.19.25.39.41.61.16.21.35.44.55.67l-.58.07h-.09c-.27,0-.53-.09-.79-.27-.26-.18-.47-.42-.65-.73l-2.21-3.82c.66-.18,1.14-.43,1.45-.75.31-.32.46-.73.46-1.23,0-.47-.13-.85-.39-1.14-.26-.29-.61-.44-1.03-.44-.1,0-.21,0-.35.03-.14.02-.29.05-.46.09v6.62h0Z"/>
  <path class="cls-2" d="m191.72,76.68h2.78c-.02-.46-.16-.84-.41-1.13-.25-.29-.56-.44-.93-.44-.4,0-.73.14-.98.42-.26.28-.41.66-.46,1.15h0Zm-.07.91c.03.81.23,1.46.62,1.93.39.48.89.72,1.52.72.28,0,.57-.06.88-.17.31-.11.64-.29,1-.52l-.58,1.26c-.31.14-.6.25-.87.32-.27.07-.52.11-.75.11-.87,0-1.58-.33-2.14-.98-.56-.65-.84-1.49-.84-2.49s.26-1.88.77-2.54c.52-.66,1.17-.99,1.98-.99.74,0,1.32.3,1.76.91.43.6.66,1.43.67,2.46h-4.02Z"/>
  <path class="cls-2" d="m200.77,75.87c-.26-.21-.51-.36-.75-.46-.23-.1-.45-.15-.66-.15-.52,0-.94.21-1.25.63-.32.42-.47.98-.47,1.67,0,.75.2,1.37.6,1.86.4.49.89.74,1.49.74.25,0,.52-.05.79-.15.28-.1.59-.25.93-.47l-.57,1.23c-.2.16-.41.28-.64.35-.22.08-.45.11-.7.11-.9,0-1.64-.32-2.23-.97-.58-.65-.88-1.46-.88-2.44s.29-1.85.86-2.53c.57-.69,1.28-1.03,2.13-1.03.13,0,.31.01.53.04s.49.07.81.12v1.44h0Z"/>
  <path class="cls-2" d="m204.84,75.71c-.08-.08-.17-.13-.25-.16-.09-.03-.18-.05-.28-.05-.38,0-.67.16-.86.48-.2.32-.3.78-.3,1.38v2.42c0,.29.03.52.09.71.06.19.15.36.28.5h-1.75c.13-.14.23-.31.28-.5.06-.19.09-.43.09-.71v-4.05c0-.29-.03-.53-.09-.73-.06-.2-.15-.36-.28-.51h.12c.18,0,.36-.01.55-.04.19-.02.41-.06.64-.11l.08,1.04c.16-.35.34-.6.54-.77.2-.17.43-.25.7-.25.06,0,.13,0,.2.01.07,0,.15.02.25.05v1.28h0Z"/>
  <path class="cls-2" d="m206.39,76.68h2.78c-.02-.46-.16-.84-.41-1.13-.25-.29-.56-.44-.93-.44-.4,0-.73.14-.98.42-.26.28-.41.66-.46,1.15h0Zm-.07.91c.03.81.23,1.46.62,1.93.39.48.89.72,1.52.72.28,0,.57-.06.88-.17.31-.11.64-.29,1-.52l-.58,1.26c-.31.14-.6.25-.87.32-.27.07-.52.11-.75.11-.87,0-1.58-.33-2.14-.98-.56-.65-.84-1.49-.84-2.49s.26-1.88.77-2.54c.52-.66,1.17-.99,1.98-.99.74,0,1.32.3,1.76.91.43.6.66,1.43.67,2.46h-4.02Z"/>
  <path class="cls-2" d="m216.03,80.1l-.45.88c-.53,0-.91-.12-1.13-.36-.23-.24-.34-.64-.34-1.19v-1.92c-.06.02-.14.05-.26.09-1.32.45-1.98.94-1.98,1.47,0,.34.11.61.33.82.22.21.51.31.88.31.1,0,.22-.01.34-.04.13-.02.27-.06.43-.11l-.59.99c-.13.04-.25.07-.36.09-.11.02-.21.03-.32.03-.53,0-.97-.19-1.31-.58-.34-.39-.52-.88-.52-1.46,0-.22.03-.44.1-.64.06-.2.16-.38.28-.54.22-.28.7-.52,1.43-.72.15-.04.27-.07.35-.1.49-.14.81-.27.97-.4.16-.13.24-.3.24-.52,0-.28-.11-.51-.32-.68-.21-.17-.5-.25-.86-.25-.19,0-.4.04-.63.13-.23.08-.49.21-.76.38l.7-1.4c.18-.03.35-.06.52-.07.16-.02.31-.03.45-.03.27,0,.51.04.73.12.22.08.41.2.58.35.22.2.37.45.46.75.09.3.14.76.14,1.39v1.57c0,.72.06,1.17.19,1.34.12.17.37.27.75.31h0Z"/>
  <path class="cls-2" d="m216.69,75.45h-.71v-.48c.43-.05.76-.29,1.01-.74.24-.44.37-1.04.39-1.81h.32v2.08h1.55v1.22c-.09-.09-.19-.16-.31-.2-.12-.04-.28-.06-.49-.06h-.75v3.16c0,.58.08,1,.23,1.28.16.27.4.41.72.41.07,0,.15-.01.24-.03.08-.02.16-.04.24-.06l-.52.96h-.03c-.14.02-.25.03-.31.03-.53,0-.92-.16-1.18-.5-.26-.33-.4-.82-.4-1.46v-3.78h0Z"/>
  <path class="cls-2" d="m220.2,72.76c0-.23.06-.42.19-.58.13-.16.28-.24.47-.24s.33.08.45.24c.13.16.19.35.19.58s-.06.43-.18.59c-.12.16-.28.24-.46.24s-.34-.08-.47-.24c-.13-.16-.19-.35-.19-.58h0Zm1.2,7.03c0,.29.03.52.09.71.06.19.16.36.29.5h-1.74c.13-.14.23-.31.29-.5.06-.19.09-.43.09-.71v-4.05c0-.29-.03-.53-.09-.73-.06-.2-.16-.36-.28-.51.31,0,.57-.02.79-.05.22-.02.41-.06.58-.1v5.43h0Z"/>
  <path class="cls-2" d="m223.28,77.55c0,.81.17,1.47.5,1.97.33.5.77.75,1.3.75.5,0,.91-.22,1.23-.67.32-.45.48-1.03.48-1.74,0-.76-.17-1.39-.51-1.88-.34-.5-.77-.74-1.3-.74-.49,0-.9.22-1.22.66-.32.44-.48.99-.48,1.65h0Zm-1.15.27c0-.49.07-.95.22-1.38.15-.43.36-.81.65-1.15.27-.32.6-.57.96-.75.37-.18.75-.27,1.14-.27s.78.08,1.11.25c.33.17.63.42.9.75.26.33.47.7.6,1.11.14.41.21.84.21,1.29,0,.5-.07.96-.22,1.39-.15.43-.36.81-.65,1.15-.27.31-.59.56-.96.74s-.75.26-1.14.26c-.42,0-.79-.08-1.12-.24-.33-.16-.63-.41-.9-.75-.26-.33-.47-.7-.61-1.12-.14-.42-.21-.85-.21-1.29h0Z"/>
  <path class="cls-2" d="m229.85,79.78c0,.29.03.52.09.71.06.19.15.36.28.5h-1.75c.13-.14.23-.31.28-.5.06-.19.09-.43.09-.71v-4.05c0-.29-.03-.53-.09-.73-.06-.2-.15-.36-.28-.51h.12c.18,0,.36-.01.55-.04.19-.02.41-.06.64-.11l.05,1.04c.27-.36.54-.62.81-.78.27-.17.56-.25.87-.25.58,0,1.05.22,1.41.66.36.44.54,1.01.54,1.72v3.05c0,.29.03.52.09.71.06.19.15.36.28.5h-1.76c.13-.14.23-.31.29-.5.06-.19.09-.43.09-.71v-2.33c0-.71-.1-1.22-.31-1.55-.21-.32-.53-.48-.98-.48s-.79.15-1,.44c-.2.3-.3.79-.3,1.49v2.42h0Z"/>
  <line class="cls-5" x1=".09" y1="85.08" x2="233.74" y2="85.08"/>
  <line class="cls-6" x1=".09" y1="68.85" x2="233.74" y2="68.85"/>
  <path class="cls-1" d="m15.94,4.45C26.95-1.76,38.87-1.09,50.17,7.09c.86.62,4.47,4.12,4.92,5.01-12.07,8.32-22.52,11.63-36.76,4.36-2.95-1.5-7.77-3.55-11.21-4.3,2.07-2.93,5.77-5.97,8.83-7.7h0Z"/>
  <path class="cls-4" d="m5.82,13.89c.18-.18,3.78,1.04,4.7,1.39,4.89,1.81,11.05,5.29,16.84,6.58,7.21,1.8,13.47.21,20.14-2.76,1.6-.66,7.76-4.23,8.92-5.28,1.23,1.58,3.14,4.81,4.2,8.51-10.58,5.67-20.6,5.91-31.89,3.14-9.88-2.75-17.03-3.37-27.65-.91.67-3.2,2.34-8.01,4.75-10.66h0Z"/>
  <path class="cls-2" d="m0,31.37C0,30.4.35,27.76.53,26.79c9.18-2.28,16.33-2.35,25.72-.01,13.44,3.46,23.16,3.59,35-2.43.68.9,1.45,9.73.83,11.05-13.47,5.73-21.61-2.75-38.36-3.73-7.8-.63-16.55,1.39-23.1,5.81C.09,36.13,0,33.13,0,31.37H0Z"/>
  <path class="cls-4" d="m2.92,45.39c-.79-1.76-1.64-4.17-1.82-5.49,4.94-3.1,9.92-5.56,15.97-6.08,12.43-1.06,18.47,2.39,27.21,4.58,1.59.4,6.09,1.13,7.76,1.12,3.39-.02,7.49-.71,9.67-1.71-.53,3.82-2.97,9.53-3.93,10.39-5.41.49-11.47-3.2-14.38-4.7l-5.63-2.91c-9.7-5.16-17.3-1.94-25,3.96-1.58,1.21-3.35,2.76-6.69,5.93-.09.09-1.03-1.41-3.14-5.11h0Z"/>
  <path class="cls-3" d="m12.52,57.31c-1.66-1.27-4.16-3.58-5.23-5.05.97-1.23,2.92-2.68,3.92-3.62,8.78-8.22,16.82-11.75,27.82-5.11,5.27,3.18,11.74,6.43,17.46,6.78-1.45,1.98-3.98,4.83-5.67,6.16l-2.79,2.05c-9.58,6.14-20.56,6.48-30.22,2.01-1.22-.56-4.07-2.27-5.3-3.24h0Z"/>
</svg>