<?xml version="1.0" encoding="utf-8"?>
<!-- Generator: Adobe Illustrator 22.1.0, SVG Export Plug-In . SVG Version: 6.00 Build 0)  -->
<svg version="1.1" id="Layer_1" xmlns="http://www.w3.org/2000/svg" xmlns:xlink="http://www.w3.org/1999/xlink" x="0px" y="0px"
	 width="1200px" height="106px" viewBox="0 0 1200 106" style="enable-background:new 0 0 1200 106;" xml:space="preserve">
<style type="text/css">
	.st0{fill-rule:evenodd;clip-rule:evenodd;fill:#5B4E3E;}
	.st1{fill-rule:evenodd;clip-rule:evenodd;fill:#00ABEB;}
	.st2{fill-rule:evenodd;clip-rule:evenodd;fill:#166E55;}
	.st3{fill-rule:evenodd;clip-rule:evenodd;fill:#2D509E;}
	.st4{fill:#726251;}
</style>
<path id="XMLID_18_" class="st0" d="M120.77,85.71c3.09,0.48,5.76,0.83,8.01,1.06c2.23,0.23,4.17,0.33,5.8,0.33
	c9.45,0,17.25-3.19,23.41-9.56c6.15-6.38,9.22-14.46,9.22-24.24c0-10.01-3.05-18.07-9.16-24.16c-6.11-6.09-14.25-9.14-24.39-9.14
	c-2.09,0-4.19,0.15-6.36,0.42c-2.15,0.29-4.34,0.75-6.53,1.36V85.71L120.77,85.71z M102.5,95.98c1.79-1.59,3.05-3.38,3.78-5.38
	c0.73-2,1.11-5.22,1.11-9.66V26c0-4.44-0.37-7.66-1.11-9.64c-0.73-1.96-1.98-3.73-3.78-5.28h29.58c7.95,0,14.5,0.77,19.67,2.32
	c5.17,1.57,9.95,4.09,14.35,7.59c4.94,3.9,8.64,8.49,11.12,13.75c2.48,5.26,3.73,11.1,3.73,17.53c0,5.84-0.92,11.22-2.77,16.21
	c-1.86,4.96-4.63,9.47-8.34,13.5c-4.53,4.92-10.04,8.49-16.52,10.7c-6.51,2.19-14.92,3.3-25.27,3.3H102.5L102.5,95.98z"/>
<path id="XMLID_7_" class="st0" d="M259.5,78.93l-6.36,15.29c-3.99,1.29-7.74,2.27-11.24,2.92c-3.51,0.65-6.84,0.98-10.02,0.98
	c-4.74,0-9.35-0.6-13.83-1.83c-4.49-1.21-8.72-3.03-12.71-5.45c-6.36-3.78-11.31-8.97-14.85-15.58c-3.55-6.59-5.32-13.87-5.32-21.82
	c0-5.95,1.29-11.73,3.86-17.36c2.57-5.63,6.2-10.62,10.93-14.98c4.32-3.94,9.24-6.95,14.79-9.01C220.29,10.02,226.2,9,232.48,9
	c2.96,0,6.09,0.27,9.39,0.83c3.27,0.54,6.78,1.38,10.54,2.52v13.62c-3.84-2.05-7.45-3.55-10.89-4.53
	c-3.42-0.98-6.76-1.46-10.01-1.46c-9.49,0-17.11,2.94-22.83,8.81c-5.74,5.86-8.6,13.64-8.6,23.35c0,10.64,2.96,19.24,8.89,25.79
	c5.94,6.53,13.73,9.81,23.39,9.81c3.96,0,8.16-0.73,12.62-2.17C249.44,84.13,254.28,81.92,259.5,78.93L259.5,78.93z"/>
<path id="XMLID_6_" class="st0" d="M278.67,80.94c0,4.28,0.38,7.45,1.13,9.51c0.75,2.04,2.04,3.9,3.88,5.53h-23.29
	c1.8-1.63,3.07-3.48,3.84-5.53c0.77-2.07,1.17-5.24,1.17-9.51V26c0-4.28-0.4-7.43-1.17-9.47c-0.77-2.04-2.04-3.86-3.84-5.45h29.4
	c8.41,0,15.17,2,20.32,5.99c5.15,3.98,7.74,9.18,7.74,15.58c0,4.65-1.54,8.74-4.65,12.29c-3.09,3.55-7.88,6.66-14.41,9.35
	l22.07,29.4c1.29,1.75,2.86,3.61,4.69,5.57c1.84,1.94,3.95,3.99,6.3,6.11l-6.59,0.6h-1.04c-3.11,0-6.11-0.81-9.06-2.44
	c-2.92-1.63-5.42-3.88-7.45-6.72l-25.31-34.9c7.53-1.67,13.04-3.96,16.52-6.86c3.49-2.92,5.24-6.68,5.24-11.29
	c0-4.28-1.5-7.76-4.49-10.45c-3-2.69-6.93-4.03-11.77-4.03c-1.11,0-2.44,0.08-3.99,0.27c-1.55,0.19-3.3,0.46-5.26,0.83V80.94
	L278.67,80.94z"/>
<path id="XMLID_5_" class="st1" d="M34,16.11c15.06-8.5,31.38-7.59,46.83,3.62c1.17,0.85,6.12,5.64,6.73,6.85
	c-16.52,11.39-30.82,15.92-50.3,5.96c-4.03-2.06-10.63-4.86-15.35-5.88C24.75,22.65,29.81,18.48,34,16.11L34,16.11z"/>
<path id="XMLID_4_" class="st2" d="M20.14,29.02c0.24-0.24,5.17,1.43,6.43,1.9c6.7,2.48,15.12,7.24,23.04,9
	c9.86,2.46,18.44,0.29,27.56-3.78c2.19-0.91,10.62-5.78,12.21-7.23c1.69,2.17,4.3,6.59,5.74,11.65c-14.48,7.76-28.2,8.08-43.65,4.3
	c-13.52-3.76-23.31-4.62-37.84-1.25C14.56,39.22,16.84,32.65,20.14,29.02L20.14,29.02z"/>
<path id="XMLID_3_" class="st3" d="M12.18,52.95c0-1.33,0.48-4.94,0.72-6.27c12.57-3.13,22.34-3.21,35.19-0.02
	c18.39,4.74,31.69,4.92,47.9-3.33c0.94,1.23,1.98,13.32,1.13,15.12c-18.43,7.84-29.57-3.76-52.49-5.1
	c-10.68-0.86-22.65,1.91-31.61,7.96C12.3,59.46,12.18,55.36,12.18,52.95L12.18,52.95z"/>
<path id="XMLID_2_" class="st2" d="M16.18,72.13c-1.08-2.41-2.25-5.7-2.49-7.51c6.76-4.25,13.58-7.61,21.85-8.32
	c17.01-1.44,25.28,3.27,37.23,6.27c2.18,0.55,8.34,1.54,10.62,1.53c4.64-0.03,10.24-0.97,13.23-2.34
	c-0.72,5.22-4.07,13.04-5.38,14.22c-7.4,0.67-15.7-4.37-19.68-6.43l-7.71-3.98c-13.28-7.06-23.67-2.66-34.22,5.42
	c-2.17,1.66-4.59,3.78-9.16,8.12C20.35,79.24,19.07,77.19,16.18,72.13L16.18,72.13z"/>
<path id="XMLID_1_" class="st0" d="M29.31,88.45c-2.27-1.74-5.69-4.91-7.16-6.91c1.32-1.69,3.99-3.66,5.37-4.95
	C39.55,65.34,50.54,60.5,65.6,69.6c7.22,4.36,16.07,8.8,23.9,9.28c-1.99,2.72-5.44,6.61-7.75,8.43l-3.82,2.81
	c-13.11,8.41-28.14,8.87-41.35,2.76C34.9,92.1,31,89.77,29.31,88.45L29.31,88.45z"/>
<rect id="XMLID_13_" x="365.84" y="12.85" width="3.78" height="84.97"/>
<g>
	<path d="M400.29,47.41l-7.73-21.63h4.74l5.47,16.01l5.3-16.01h4.63l-7.74,21.63H400.29z"/>
	<path d="M414.95,29.62v-3.83h4.15v3.83H414.95z M414.95,47.41V31.75h4.15v15.67H414.95z"/>
	<path d="M427.91,47.41h-4.15V31.75h3.85v2.23c0.66-1.05,1.25-1.75,1.78-2.08c0.53-0.33,1.12-0.5,1.79-0.5
		c0.94,0,1.85,0.26,2.73,0.78l-1.28,3.61c-0.7-0.45-1.35-0.68-1.95-0.68c-0.58,0-1.07,0.16-1.48,0.48c-0.4,0.32-0.72,0.9-0.95,1.73
		s-0.35,2.59-0.35,5.25V47.41z"/>
	<path d="M435.92,48.44l4.74,0.58c0.08,0.55,0.26,0.93,0.55,1.14c0.39,0.29,1.01,0.44,1.86,0.44c1.08,0,1.89-0.16,2.43-0.49
		c0.36-0.22,0.64-0.57,0.83-1.05c0.13-0.34,0.19-0.98,0.19-1.9v-2.29c-1.24,1.69-2.8,2.54-4.69,2.54c-2.1,0-3.77-0.89-5-2.67
		c-0.96-1.41-1.45-3.16-1.45-5.25c0-2.63,0.63-4.63,1.9-6.02s2.83-2.08,4.71-2.08c1.94,0,3.54,0.85,4.79,2.55v-2.2h3.88V45.8
		c0,1.85-0.15,3.23-0.46,4.15c-0.3,0.92-0.73,1.63-1.28,2.15c-0.55,0.52-1.29,0.93-2.21,1.22c-0.92,0.3-2.08,0.44-3.49,0.44
		c-2.66,0-4.54-0.46-5.65-1.37c-1.11-0.91-1.67-2.06-1.67-3.46C435.91,48.81,435.91,48.64,435.92,48.44z M439.63,39.25
		c0,1.66,0.32,2.88,0.97,3.65c0.64,0.77,1.44,1.16,2.38,1.16c1.01,0,1.87-0.4,2.57-1.19c0.7-0.79,1.05-1.96,1.05-3.52
		c0-1.62-0.33-2.83-1-3.61c-0.67-0.79-1.51-1.18-2.54-1.18c-0.99,0-1.81,0.39-2.46,1.16C439.95,36.49,439.63,37.67,439.63,39.25z"/>
	<path d="M455.37,29.62v-3.83h4.15v3.83H455.37z M455.37,47.41V31.75h4.15v15.67H455.37z"/>
	<path d="M478.61,47.41h-4.15v-8c0-1.69-0.09-2.79-0.27-3.28c-0.18-0.5-0.46-0.88-0.86-1.16s-0.88-0.41-1.44-0.41
		c-0.72,0-1.36,0.2-1.93,0.59c-0.57,0.39-0.96,0.92-1.17,1.56c-0.21,0.65-0.32,1.85-0.32,3.6v7.1h-4.15V31.75h3.85v2.3
		c1.37-1.77,3.09-2.66,5.16-2.66c0.91,0,1.75,0.17,2.51,0.49c0.76,0.33,1.33,0.75,1.72,1.26c0.39,0.51,0.66,1.09,0.81,1.74
		c0.15,0.65,0.23,1.58,0.23,2.79V47.41z"/>
	<path d="M483.42,29.62v-3.83h4.15v3.83H483.42z M483.42,47.41V31.75h4.15v15.67H483.42z"/>
	<path d="M495.52,36.53l-3.76-0.68c0.42-1.51,1.15-2.64,2.18-3.36s2.57-1.09,4.6-1.09c1.85,0,3.23,0.22,4.13,0.66
		c0.9,0.44,1.54,0.99,1.91,1.67c0.37,0.67,0.55,1.91,0.55,3.71l-0.04,4.84c0,1.38,0.07,2.39,0.2,3.05c0.13,0.65,0.38,1.36,0.74,2.1
		h-4.1c-0.11-0.28-0.24-0.68-0.4-1.22c-0.07-0.25-0.12-0.41-0.15-0.49c-0.71,0.69-1.47,1.2-2.27,1.55
		c-0.81,0.34-1.67,0.52-2.58,0.52c-1.61,0-2.88-0.44-3.81-1.31c-0.93-0.88-1.39-1.98-1.39-3.32c0-0.88,0.21-1.67,0.63-2.37
		c0.42-0.69,1.02-1.22,1.78-1.59c0.76-0.37,1.86-0.69,3.3-0.97c1.94-0.36,3.28-0.7,4.03-1.02v-0.41c0-0.8-0.2-1.37-0.59-1.7
		c-0.39-0.34-1.14-0.51-2.23-0.51c-0.74,0-1.31,0.15-1.73,0.43C496.11,35.29,495.77,35.8,495.52,36.53z M501.06,39.89
		c-0.53,0.18-1.37,0.39-2.52,0.63c-1.15,0.25-1.9,0.49-2.26,0.72c-0.54,0.38-0.81,0.87-0.81,1.46c0,0.58,0.22,1.08,0.65,1.5
		s0.98,0.63,1.65,0.63c0.75,0,1.46-0.25,2.14-0.74c0.5-0.37,0.83-0.83,0.99-1.37c0.11-0.35,0.16-1.03,0.16-2.02V39.89z"/>
	<path d="M518.84,25.79h7.98c1.8,0,3.17,0.14,4.12,0.41c1.27,0.37,2.35,1.04,3.26,1.99c0.9,0.95,1.59,2.12,2.06,3.5
		s0.71,3.08,0.71,5.11c0,1.78-0.22,3.31-0.66,4.6c-0.54,1.57-1.31,2.85-2.32,3.82c-0.76,0.74-1.78,1.31-3.07,1.73
		c-0.96,0.3-2.25,0.46-3.87,0.46h-8.22V25.79z M523.21,29.44v14.32h3.26c1.22,0,2.1-0.07,2.64-0.21c0.71-0.18,1.3-0.48,1.76-0.9
		c0.47-0.42,0.85-1.12,1.14-2.09c0.3-0.97,0.44-2.29,0.44-3.96s-0.15-2.96-0.44-3.85c-0.29-0.89-0.71-1.59-1.24-2.09
		c-0.53-0.5-1.21-0.84-2.02-1.02c-0.61-0.14-1.81-0.21-3.58-0.21H523.21z"/>
	<path d="M550.32,42.43l4.13,0.69c-0.53,1.51-1.37,2.67-2.52,3.46c-1.15,0.79-2.58,1.19-4.3,1.19c-2.72,0-4.74-0.89-6.05-2.67
		c-1.03-1.43-1.55-3.23-1.55-5.4c0-2.6,0.68-4.63,2.04-6.1c1.36-1.47,3.07-2.21,5.15-2.21c2.33,0,4.17,0.77,5.52,2.31
		s1.99,3.9,1.93,7.07h-10.39c0.03,1.23,0.36,2.19,1,2.87c0.64,0.68,1.44,1.03,2.39,1.03c0.65,0,1.2-0.18,1.64-0.53
		C549.76,43.78,550.09,43.21,550.32,42.43z M550.56,38.24c-0.03-1.2-0.34-2.11-0.93-2.74c-0.59-0.62-1.31-0.94-2.15-0.94
		c-0.9,0-1.65,0.33-2.24,0.99c-0.59,0.66-0.88,1.55-0.87,2.68H550.56z"/>
	<path d="M558.54,31.75h3.86v2.3c0.5-0.79,1.18-1.43,2.04-1.92c0.86-0.49,1.8-0.74,2.85-0.74c1.82,0,3.36,0.71,4.63,2.14
		c1.27,1.43,1.9,3.41,1.9,5.96c0,2.62-0.64,4.65-1.92,6.1c-1.28,1.45-2.83,2.18-4.65,2.18c-0.87,0-1.65-0.17-2.35-0.52
		c-0.7-0.34-1.44-0.93-2.22-1.77v7.89h-4.14V31.75z M562.64,39.31c0,1.76,0.35,3.06,1.05,3.9c0.7,0.84,1.55,1.26,2.55,1.26
		c0.96,0,1.76-0.39,2.4-1.16c0.64-0.77,0.96-2.04,0.96-3.8c0-1.64-0.33-2.86-0.99-3.66s-1.48-1.19-2.45-1.19
		c-1.01,0-1.85,0.39-2.52,1.17C562.97,36.62,562.64,37.78,562.64,39.31z"/>
	<path d="M580.81,36.53l-3.76-0.68c0.42-1.51,1.15-2.64,2.18-3.36c1.03-0.73,2.57-1.09,4.6-1.09c1.85,0,3.23,0.22,4.13,0.66
		c0.9,0.44,1.54,0.99,1.91,1.67c0.37,0.67,0.55,1.91,0.55,3.71l-0.04,4.84c0,1.38,0.07,2.39,0.2,3.05c0.13,0.65,0.38,1.36,0.75,2.1
		h-4.1c-0.11-0.28-0.24-0.68-0.4-1.22c-0.07-0.25-0.12-0.41-0.15-0.49c-0.71,0.69-1.47,1.2-2.27,1.55
		c-0.81,0.34-1.67,0.52-2.58,0.52c-1.61,0-2.88-0.44-3.81-1.31c-0.93-0.88-1.39-1.98-1.39-3.32c0-0.88,0.21-1.67,0.63-2.37
		s1.02-1.22,1.78-1.59c0.76-0.37,1.86-0.69,3.3-0.97c1.94-0.36,3.28-0.7,4.03-1.02v-0.41c0-0.8-0.2-1.37-0.59-1.7
		s-1.14-0.51-2.23-0.51c-0.74,0-1.31,0.15-1.73,0.43C581.4,35.29,581.07,35.8,580.81,36.53z M586.36,39.89
		c-0.53,0.18-1.37,0.39-2.52,0.63c-1.15,0.25-1.9,0.49-2.26,0.72c-0.54,0.38-0.81,0.87-0.81,1.46c0,0.58,0.22,1.08,0.65,1.5
		s0.98,0.63,1.65,0.63c0.75,0,1.46-0.25,2.14-0.74c0.5-0.37,0.83-0.83,0.99-1.37c0.11-0.35,0.16-1.03,0.16-2.02V39.89z"/>
	<path d="M599.09,47.41h-4.15V31.75h3.85v2.23c0.66-1.05,1.25-1.75,1.78-2.08c0.53-0.33,1.12-0.5,1.79-0.5
		c0.94,0,1.85,0.26,2.73,0.78l-1.28,3.61c-0.7-0.45-1.35-0.68-1.95-0.68c-0.58,0-1.07,0.16-1.48,0.48s-0.72,0.9-0.95,1.73
		s-0.35,2.59-0.35,5.25V47.41z"/>
	<path d="M614.66,31.75v3.3h-2.83v6.31c0,1.28,0.03,2.02,0.08,2.23c0.05,0.21,0.18,0.39,0.37,0.52c0.19,0.14,0.43,0.21,0.7,0.21
		c0.38,0,0.94-0.13,1.67-0.4l0.35,3.22c-0.96,0.41-2.06,0.62-3.28,0.62c-0.75,0-1.42-0.13-2.02-0.38c-0.6-0.25-1.04-0.58-1.32-0.97
		c-0.28-0.4-0.47-0.94-0.58-1.62c-0.09-0.48-0.13-1.46-0.13-2.92v-6.83h-1.9v-3.3h1.9v-3.11l4.16-2.42v5.53H614.66z"/>
	<path d="M617.83,31.75h3.82v2.14c1.37-1.66,2.99-2.49,4.88-2.49c1,0,1.87,0.21,2.61,0.62c0.74,0.41,1.34,1.04,1.81,1.87
		c0.69-0.84,1.43-1.46,2.23-1.87c0.8-0.41,1.65-0.62,2.55-0.62c1.15,0,2.12,0.23,2.92,0.7c0.8,0.47,1.39,1.15,1.79,2.06
		c0.28,0.67,0.43,1.75,0.43,3.25v10.02h-4.15v-8.95c0-1.55-0.14-2.56-0.43-3.01c-0.38-0.59-0.97-0.88-1.77-0.88
		c-0.58,0-1.13,0.18-1.64,0.53c-0.51,0.35-0.88,0.87-1.11,1.56c-0.23,0.68-0.34,1.76-0.34,3.24v7.52h-4.15v-8.59
		c0-1.52-0.07-2.51-0.22-2.95s-0.38-0.77-0.69-0.99c-0.31-0.22-0.73-0.32-1.26-0.32c-0.64,0-1.21,0.17-1.73,0.52
		c-0.51,0.34-0.88,0.84-1.1,1.49c-0.22,0.65-0.33,1.73-0.33,3.23v7.61h-4.15V31.75z"/>
	<path d="M654.68,42.43l4.13,0.69c-0.53,1.51-1.37,2.67-2.51,3.46c-1.15,0.79-2.58,1.19-4.3,1.19c-2.72,0-4.74-0.89-6.05-2.67
		c-1.03-1.43-1.55-3.23-1.55-5.4c0-2.6,0.68-4.63,2.04-6.1c1.36-1.47,3.07-2.21,5.15-2.21c2.33,0,4.17,0.77,5.52,2.31
		s1.99,3.9,1.93,7.07h-10.39c0.03,1.23,0.36,2.19,1,2.87c0.64,0.68,1.44,1.03,2.39,1.03c0.65,0,1.19-0.18,1.64-0.53
		C654.12,43.78,654.46,43.21,654.68,42.43z M654.92,38.24c-0.03-1.2-0.34-2.11-0.93-2.74c-0.59-0.62-1.31-0.94-2.15-0.94
		c-0.9,0-1.65,0.33-2.24,0.99s-0.88,1.55-0.87,2.68H654.92z"/>
	<path d="M677.27,47.41h-4.15v-8c0-1.69-0.09-2.79-0.27-3.28c-0.18-0.5-0.46-0.88-0.86-1.16c-0.4-0.28-0.88-0.41-1.44-0.41
		c-0.72,0-1.36,0.2-1.93,0.59s-0.96,0.92-1.17,1.56c-0.21,0.65-0.32,1.85-0.32,3.6v7.1h-4.15V31.75h3.85v2.3
		c1.37-1.77,3.09-2.66,5.16-2.66c0.92,0,1.75,0.17,2.51,0.49c0.76,0.33,1.33,0.75,1.72,1.26c0.39,0.51,0.66,1.09,0.81,1.74
		c0.15,0.65,0.23,1.58,0.23,2.79V47.41z"/>
	<path d="M689.26,31.75v3.3h-2.83v6.31c0,1.28,0.03,2.02,0.08,2.23c0.05,0.21,0.18,0.39,0.37,0.52c0.19,0.14,0.43,0.21,0.7,0.21
		c0.38,0,0.94-0.13,1.67-0.4l0.35,3.22c-0.96,0.41-2.06,0.62-3.28,0.62c-0.75,0-1.42-0.13-2.02-0.38c-0.6-0.25-1.04-0.58-1.32-0.97
		c-0.28-0.4-0.47-0.94-0.58-1.62c-0.09-0.48-0.13-1.46-0.13-2.92v-6.83h-1.9v-3.3h1.9v-3.11l4.16-2.42v5.53H689.26z"/>
	<path d="M700.78,39.36c0-1.38,0.34-2.71,1.02-4c0.68-1.29,1.64-2.27,2.88-2.95c1.24-0.68,2.63-1.02,4.17-1.02
		c2.37,0,4.31,0.77,5.83,2.31s2.27,3.48,2.27,5.83c0,2.37-0.77,4.33-2.29,5.89c-1.53,1.56-3.46,2.34-5.78,2.34
		c-1.44,0-2.81-0.33-4.11-0.97c-1.3-0.65-2.29-1.6-2.97-2.85S700.78,41.16,700.78,39.36z M705.03,39.58c0,1.55,0.37,2.74,1.11,3.57
		s1.65,1.24,2.73,1.24c1.08,0,1.99-0.41,2.72-1.24c0.73-0.83,1.1-2.03,1.1-3.6c0-1.53-0.37-2.71-1.1-3.54
		c-0.73-0.83-1.64-1.24-2.72-1.24c-1.08,0-1.99,0.41-2.73,1.24S705.03,38.03,705.03,39.58z"/>
	<path d="M718.98,31.75h2.3v-1.18c0-1.32,0.14-2.3,0.42-2.95s0.8-1.18,1.55-1.59c0.75-0.41,1.7-0.61,2.85-0.61
		c1.18,0,2.33,0.18,3.47,0.53l-0.56,2.89c-0.66-0.16-1.29-0.24-1.9-0.24c-0.6,0-1.03,0.14-1.29,0.42s-0.39,0.82-0.39,1.62v1.11h3.1
		v3.26h-3.1v12.41h-4.15V35.01h-2.3V31.75z"/>
	<path d="M754.33,39.46l4.23,1.34c-0.65,2.36-1.73,4.11-3.24,5.26c-1.51,1.15-3.42,1.72-5.75,1.72c-2.87,0-5.23-0.98-7.08-2.94
		s-2.77-4.64-2.77-8.05c0-3.6,0.93-6.4,2.79-8.39c1.86-1.99,4.3-2.99,7.33-2.99c2.65,0,4.79,0.78,6.45,2.35
		c0.98,0.92,1.72,2.25,2.21,3.98l-4.32,1.03c-0.26-1.12-0.79-2.01-1.6-2.66s-1.8-0.97-2.96-0.97c-1.6,0-2.9,0.58-3.9,1.73
		c-1,1.15-1.5,3.01-1.5,5.59c0,2.73,0.49,4.68,1.47,5.84c0.98,1.16,2.26,1.74,3.84,1.74c1.16,0,2.16-0.37,2.99-1.11
		S753.96,41.04,754.33,39.46z"/>
	<path d="M761.92,39.36c0-1.38,0.34-2.71,1.02-4c0.68-1.29,1.64-2.27,2.88-2.95c1.24-0.68,2.63-1.02,4.17-1.02
		c2.37,0,4.31,0.77,5.83,2.31s2.27,3.48,2.27,5.83c0,2.37-0.77,4.33-2.29,5.89c-1.53,1.56-3.46,2.34-5.78,2.34
		c-1.44,0-2.81-0.33-4.11-0.97c-1.3-0.65-2.29-1.6-2.97-2.85S761.92,41.16,761.92,39.36z M766.17,39.58c0,1.55,0.37,2.74,1.11,3.57
		s1.65,1.24,2.73,1.24c1.08,0,1.99-0.41,2.72-1.24c0.73-0.83,1.1-2.03,1.1-3.6c0-1.53-0.37-2.71-1.1-3.54
		c-0.73-0.83-1.64-1.24-2.72-1.24c-1.08,0-1.99,0.41-2.73,1.24S766.17,38.03,766.17,39.58z"/>
	<path d="M796.19,47.41h-4.15v-8c0-1.69-0.09-2.79-0.27-3.28c-0.18-0.5-0.46-0.88-0.86-1.16c-0.4-0.28-0.88-0.41-1.44-0.41
		c-0.72,0-1.36,0.2-1.93,0.59s-0.96,0.92-1.17,1.56c-0.21,0.65-0.32,1.85-0.32,3.6v7.1h-4.15V31.75h3.85v2.3
		c1.37-1.77,3.09-2.66,5.16-2.66c0.92,0,1.75,0.17,2.51,0.49c0.76,0.33,1.33,0.75,1.72,1.26c0.39,0.51,0.66,1.09,0.81,1.74
		c0.15,0.65,0.23,1.58,0.23,2.79V47.41z"/>
	<path d="M799.54,42.94l4.16-0.63c0.18,0.81,0.54,1.42,1.08,1.84c0.54,0.42,1.3,0.63,2.27,0.63c1.07,0,1.88-0.2,2.42-0.59
		c0.36-0.28,0.55-0.64,0.55-1.11c0-0.31-0.1-0.58-0.29-0.78c-0.21-0.2-0.67-0.38-1.39-0.55c-3.34-0.74-5.46-1.41-6.36-2.02
		c-1.24-0.85-1.86-2.02-1.86-3.53c0-1.36,0.54-2.5,1.61-3.42c1.07-0.92,2.73-1.39,4.99-1.39c2.14,0,3.74,0.35,4.78,1.05
		c1.04,0.7,1.76,1.73,2.15,3.1l-3.91,0.72c-0.17-0.61-0.48-1.08-0.95-1.4c-0.47-0.32-1.13-0.49-2-0.49c-1.09,0-1.87,0.15-2.35,0.46
		c-0.31,0.22-0.47,0.5-0.47,0.84c0,0.29,0.14,0.55,0.41,0.75c0.37,0.28,1.66,0.66,3.87,1.17c2.21,0.5,3.75,1.12,4.63,1.84
		c0.87,0.74,1.3,1.76,1.3,3.08c0,1.44-0.6,2.67-1.8,3.7c-1.2,1.03-2.97,1.55-5.33,1.55c-2.13,0-3.82-0.43-5.07-1.3
		C800.73,45.6,799.92,44.43,799.54,42.94z"/>
	<path d="M827.48,42.43l4.13,0.69c-0.53,1.51-1.37,2.67-2.51,3.46c-1.15,0.79-2.58,1.19-4.3,1.19c-2.72,0-4.74-0.89-6.05-2.67
		c-1.03-1.43-1.55-3.23-1.55-5.4c0-2.6,0.68-4.63,2.04-6.1c1.36-1.47,3.07-2.21,5.15-2.21c2.33,0,4.17,0.77,5.52,2.31
		s1.99,3.9,1.93,7.07h-10.39c0.03,1.23,0.36,2.19,1,2.87c0.64,0.68,1.44,1.03,2.39,1.03c0.65,0,1.19-0.18,1.64-0.53
		C826.92,43.78,827.25,43.21,827.48,42.43z M827.71,38.24c-0.03-1.2-0.34-2.11-0.93-2.74c-0.59-0.62-1.31-0.94-2.15-0.94
		c-0.9,0-1.65,0.33-2.24,0.99s-0.88,1.55-0.87,2.68H827.71z"/>
	<path d="M839.78,47.41h-4.15V31.75h3.85v2.23c0.66-1.05,1.25-1.75,1.78-2.08c0.53-0.33,1.12-0.5,1.79-0.5
		c0.94,0,1.85,0.26,2.73,0.78l-1.28,3.61c-0.7-0.45-1.35-0.68-1.95-0.68c-0.58,0-1.07,0.16-1.48,0.48s-0.72,0.9-0.95,1.73
		s-0.35,2.59-0.35,5.25V47.41z"/>
	<path d="M852.48,47.41l-6.31-15.67h4.35l2.95,8l0.86,2.67c0.23-0.68,0.37-1.13,0.43-1.34c0.14-0.44,0.29-0.89,0.44-1.33l2.98-8
		h4.26l-6.23,15.67H852.48z"/>
	<path d="M868.68,36.53l-3.76-0.68c0.42-1.51,1.15-2.64,2.18-3.36c1.03-0.73,2.57-1.09,4.6-1.09c1.85,0,3.23,0.22,4.13,0.66
		c0.9,0.44,1.54,0.99,1.91,1.67c0.37,0.67,0.55,1.91,0.55,3.71l-0.04,4.84c0,1.38,0.07,2.39,0.2,3.05c0.13,0.65,0.38,1.36,0.75,2.1
		h-4.1c-0.11-0.28-0.24-0.68-0.4-1.22c-0.07-0.25-0.12-0.41-0.15-0.49c-0.71,0.69-1.47,1.2-2.27,1.55
		c-0.81,0.34-1.67,0.52-2.58,0.52c-1.61,0-2.88-0.44-3.81-1.31c-0.93-0.88-1.39-1.98-1.39-3.32c0-0.88,0.21-1.67,0.63-2.37
		s1.02-1.22,1.78-1.59c0.76-0.37,1.86-0.69,3.3-0.97c1.94-0.36,3.28-0.7,4.03-1.02v-0.41c0-0.8-0.2-1.37-0.59-1.7
		s-1.14-0.51-2.23-0.51c-0.74,0-1.31,0.15-1.73,0.43C869.27,35.29,868.93,35.8,868.68,36.53z M874.22,39.89
		c-0.53,0.18-1.37,0.39-2.52,0.63c-1.15,0.25-1.9,0.49-2.26,0.72c-0.54,0.38-0.81,0.87-0.81,1.46c0,0.58,0.22,1.08,0.65,1.5
		s0.98,0.63,1.65,0.63c0.75,0,1.46-0.25,2.14-0.74c0.5-0.37,0.83-0.83,0.99-1.37c0.11-0.35,0.16-1.03,0.16-2.02V39.89z"/>
	<path d="M890.17,31.75v3.3h-2.83v6.31c0,1.28,0.03,2.02,0.08,2.23c0.05,0.21,0.18,0.39,0.37,0.52c0.19,0.14,0.43,0.21,0.7,0.21
		c0.38,0,0.94-0.13,1.67-0.4l0.35,3.22c-0.96,0.41-2.06,0.62-3.28,0.62c-0.75,0-1.42-0.13-2.02-0.38c-0.6-0.25-1.04-0.58-1.32-0.97
		c-0.28-0.4-0.47-0.94-0.58-1.62c-0.09-0.48-0.13-1.46-0.13-2.92v-6.83h-1.9v-3.3h1.9v-3.11l4.16-2.42v5.53H890.17z"/>
	<path d="M893.65,29.62v-3.83h4.14v3.83H893.65z M893.65,47.41V31.75h4.14v15.67H893.65z"/>
	<path d="M901.69,39.36c0-1.38,0.34-2.71,1.02-4c0.68-1.29,1.64-2.27,2.88-2.95c1.24-0.68,2.63-1.02,4.17-1.02
		c2.37,0,4.31,0.77,5.83,2.31s2.27,3.48,2.27,5.83c0,2.37-0.77,4.33-2.29,5.89c-1.53,1.56-3.46,2.34-5.78,2.34
		c-1.44,0-2.81-0.33-4.11-0.97c-1.3-0.65-2.29-1.6-2.97-2.85S901.69,41.16,901.69,39.36z M905.94,39.58c0,1.55,0.37,2.74,1.11,3.57
		s1.65,1.24,2.73,1.24c1.08,0,1.99-0.41,2.72-1.24c0.73-0.83,1.1-2.03,1.1-3.6c0-1.53-0.37-2.71-1.1-3.54
		c-0.73-0.83-1.64-1.24-2.72-1.24c-1.08,0-1.99,0.41-2.73,1.24S905.94,38.03,905.94,39.58z"/>
	<path d="M935.96,47.41h-4.15v-8c0-1.69-0.09-2.79-0.27-3.28c-0.18-0.5-0.46-0.88-0.86-1.16c-0.4-0.28-0.88-0.41-1.44-0.41
		c-0.72,0-1.36,0.2-1.93,0.59s-0.96,0.92-1.17,1.56c-0.21,0.65-0.32,1.85-0.32,3.6v7.1h-4.15V31.75h3.85v2.3
		c1.37-1.77,3.09-2.66,5.16-2.66c0.92,0,1.75,0.17,2.51,0.49c0.76,0.33,1.33,0.75,1.72,1.26c0.39,0.51,0.66,1.09,0.81,1.74
		c0.15,0.65,0.23,1.58,0.23,2.79V47.41z"/>
	<path d="M952.86,36.53l-3.76-0.68c0.42-1.51,1.15-2.64,2.18-3.36c1.03-0.73,2.57-1.09,4.6-1.09c1.85,0,3.23,0.22,4.13,0.66
		c0.9,0.44,1.54,0.99,1.91,1.67c0.37,0.67,0.55,1.91,0.55,3.71l-0.04,4.84c0,1.38,0.07,2.39,0.2,3.05c0.13,0.65,0.38,1.36,0.75,2.1
		h-4.1c-0.11-0.28-0.24-0.68-0.4-1.22c-0.07-0.25-0.12-0.41-0.15-0.49c-0.71,0.69-1.47,1.2-2.27,1.55
		c-0.81,0.34-1.67,0.52-2.58,0.52c-1.61,0-2.88-0.44-3.81-1.31c-0.93-0.88-1.39-1.98-1.39-3.32c0-0.88,0.21-1.67,0.63-2.37
		s1.02-1.22,1.78-1.59c0.76-0.37,1.86-0.69,3.3-0.97c1.94-0.36,3.28-0.7,4.03-1.02v-0.41c0-0.8-0.2-1.37-0.59-1.7
		s-1.14-0.51-2.23-0.51c-0.74,0-1.31,0.15-1.73,0.43C953.45,35.29,953.12,35.8,952.86,36.53z M958.41,39.89
		c-0.53,0.18-1.37,0.39-2.52,0.63c-1.15,0.25-1.9,0.49-2.26,0.72c-0.54,0.38-0.81,0.87-0.81,1.46c0,0.58,0.22,1.08,0.65,1.5
		s0.98,0.63,1.65,0.63c0.75,0,1.46-0.25,2.14-0.74c0.5-0.37,0.83-0.83,0.99-1.37c0.11-0.35,0.16-1.03,0.16-2.02V39.89z"/>
	<path d="M981.42,47.41h-4.15v-8c0-1.69-0.09-2.79-0.27-3.28c-0.18-0.5-0.46-0.88-0.86-1.16c-0.4-0.28-0.88-0.41-1.44-0.41
		c-0.72,0-1.36,0.2-1.93,0.59s-0.96,0.92-1.17,1.56c-0.21,0.65-0.32,1.85-0.32,3.6v7.1h-4.15V31.75h3.85v2.3
		c1.37-1.77,3.09-2.66,5.16-2.66c0.92,0,1.75,0.17,2.51,0.49c0.76,0.33,1.33,0.75,1.72,1.26c0.39,0.51,0.66,1.09,0.81,1.74
		c0.15,0.65,0.23,1.58,0.23,2.79V47.41z"/>
	<path d="M1000.6,47.41h-3.85v-2.3c-0.64,0.9-1.39,1.56-2.26,2s-1.75,0.66-2.63,0.66c-1.8,0-3.34-0.73-4.63-2.18
		c-1.28-1.45-1.92-3.47-1.92-6.07c0-2.66,0.62-4.67,1.87-6.06c1.25-1.38,2.83-2.07,4.74-2.07c1.75,0,3.27,0.73,4.54,2.18v-7.79h4.15
		V47.41z M989.53,39.24c0,1.67,0.23,2.88,0.69,3.63c0.67,1.08,1.6,1.62,2.8,1.62c0.95,0,1.77-0.41,2.43-1.22s1-2.02,1-3.64
		c0-1.8-0.32-3.09-0.97-3.89s-1.48-1.19-2.49-1.19c-0.98,0-1.81,0.39-2.47,1.17C989.86,36.52,989.53,37.69,989.53,39.24z"/>
	<path d="M1014.33,47.41V25.79h9.19c2.31,0,3.99,0.19,5.04,0.58c1.05,0.39,1.89,1.08,2.52,2.07c0.63,0.99,0.94,2.13,0.94,3.41
		c0,1.62-0.48,2.96-1.43,4.02c-0.95,1.06-2.38,1.72-4.28,2c0.94,0.55,1.72,1.16,2.34,1.81c0.61,0.66,1.44,1.83,2.49,3.51l2.64,4.22
		h-5.22l-3.16-4.71c-1.12-1.68-1.89-2.74-2.3-3.18s-0.85-0.74-1.31-0.9c-0.46-0.16-1.19-0.24-2.2-0.24h-0.89v9.03H1014.33z
		 M1018.69,34.93h3.23c2.09,0,3.4-0.09,3.92-0.26c0.52-0.18,0.93-0.48,1.22-0.92s0.44-0.97,0.44-1.62c0-0.73-0.19-1.31-0.58-1.76
		c-0.39-0.45-0.94-0.73-1.65-0.85c-0.35-0.05-1.42-0.07-3.19-0.07h-3.41V34.93z"/>
	<path d="M1045.78,42.43l4.13,0.69c-0.53,1.51-1.37,2.67-2.51,3.46c-1.15,0.79-2.58,1.19-4.3,1.19c-2.72,0-4.74-0.89-6.05-2.67
		c-1.03-1.43-1.55-3.23-1.55-5.4c0-2.6,0.68-4.63,2.04-6.1c1.36-1.47,3.07-2.21,5.15-2.21c2.33,0,4.17,0.77,5.52,2.31
		s1.99,3.9,1.93,7.07h-10.39c0.03,1.23,0.36,2.19,1,2.87c0.64,0.68,1.44,1.03,2.39,1.03c0.65,0,1.19-0.18,1.64-0.53
		C1045.22,43.78,1045.55,43.21,1045.78,42.43z M1046.01,38.24c-0.03-1.2-0.34-2.11-0.93-2.74c-0.59-0.62-1.31-0.94-2.15-0.94
		c-0.9,0-1.65,0.33-2.24,0.99s-0.88,1.55-0.87,2.68H1046.01z"/>
	<path d="M1067.77,36.38l-4.09,0.74c-0.14-0.82-0.45-1.43-0.94-1.84s-1.12-0.62-1.9-0.62c-1.03,0-1.86,0.36-2.47,1.07
		c-0.62,0.71-0.92,1.91-0.92,3.58c0,1.86,0.31,3.17,0.94,3.94c0.62,0.77,1.46,1.15,2.51,1.15c0.79,0,1.43-0.22,1.93-0.67
		c0.5-0.45,0.86-1.22,1.06-2.31l4.07,0.69c-0.42,1.87-1.23,3.28-2.43,4.23c-1.2,0.95-2.81,1.43-4.82,1.43
		c-2.29,0-4.12-0.72-5.48-2.17s-2.04-3.45-2.04-6c0-2.59,0.68-4.6,2.05-6.04c1.37-1.44,3.22-2.16,5.55-2.16
		c1.91,0,3.42,0.41,4.55,1.23C1066.47,33.44,1067.28,34.7,1067.77,36.38z"/>
	<path d="M1075.49,47.41h-4.15V31.75h3.85v2.23c0.66-1.05,1.25-1.75,1.78-2.08c0.53-0.33,1.12-0.5,1.79-0.5
		c0.94,0,1.85,0.26,2.73,0.78l-1.28,3.61c-0.7-0.45-1.35-0.68-1.95-0.68c-0.58,0-1.07,0.16-1.48,0.48s-0.72,0.9-0.95,1.73
		s-0.35,2.59-0.35,5.25V47.41z"/>
	<path d="M1092.95,42.43l4.13,0.69c-0.53,1.51-1.37,2.67-2.51,3.46c-1.15,0.79-2.58,1.19-4.3,1.19c-2.72,0-4.74-0.89-6.05-2.67
		c-1.03-1.43-1.55-3.23-1.55-5.4c0-2.6,0.68-4.63,2.04-6.1c1.36-1.47,3.07-2.21,5.15-2.21c2.33,0,4.17,0.77,5.52,2.31
		s1.99,3.9,1.93,7.07h-10.39c0.03,1.23,0.36,2.19,1,2.87c0.64,0.68,1.44,1.03,2.39,1.03c0.65,0,1.19-0.18,1.64-0.53
		C1092.39,43.78,1092.73,43.21,1092.95,42.43z M1093.19,38.24c-0.03-1.2-0.34-2.11-0.93-2.74c-0.59-0.62-1.31-0.94-2.15-0.94
		c-0.9,0-1.65,0.33-2.24,0.99s-0.88,1.55-0.87,2.68H1093.19z"/>
	<path d="M1104.38,36.53l-3.76-0.68c0.42-1.51,1.15-2.64,2.18-3.36c1.03-0.73,2.57-1.09,4.6-1.09c1.85,0,3.23,0.22,4.13,0.66
		c0.9,0.44,1.54,0.99,1.91,1.67c0.37,0.67,0.55,1.91,0.55,3.71l-0.04,4.84c0,1.38,0.07,2.39,0.2,3.05c0.13,0.65,0.38,1.36,0.75,2.1
		h-4.1c-0.11-0.28-0.24-0.68-0.4-1.22c-0.07-0.25-0.12-0.41-0.15-0.49c-0.71,0.69-1.47,1.2-2.27,1.55
		c-0.81,0.34-1.67,0.52-2.58,0.52c-1.61,0-2.88-0.44-3.81-1.31c-0.93-0.88-1.39-1.98-1.39-3.32c0-0.88,0.21-1.67,0.63-2.37
		s1.02-1.22,1.78-1.59c0.76-0.37,1.86-0.69,3.3-0.97c1.94-0.36,3.28-0.7,4.03-1.02v-0.41c0-0.8-0.2-1.37-0.59-1.7
		s-1.14-0.51-2.23-0.51c-0.74,0-1.31,0.15-1.73,0.43C1104.97,35.29,1104.64,35.8,1104.38,36.53z M1109.93,39.89
		c-0.53,0.18-1.37,0.39-2.52,0.63c-1.15,0.25-1.9,0.49-2.26,0.72c-0.54,0.38-0.81,0.87-0.81,1.46c0,0.58,0.22,1.08,0.65,1.5
		s0.98,0.63,1.65,0.63c0.75,0,1.46-0.25,2.14-0.74c0.5-0.37,0.83-0.83,0.99-1.37c0.11-0.35,0.16-1.03,0.16-2.02V39.89z"/>
	<path d="M1125.88,31.75v3.3h-2.83v6.31c0,1.28,0.03,2.02,0.08,2.23c0.05,0.21,0.18,0.39,0.37,0.52c0.19,0.14,0.43,0.21,0.7,0.21
		c0.38,0,0.94-0.13,1.67-0.4l0.35,3.22c-0.96,0.41-2.06,0.62-3.28,0.62c-0.75,0-1.42-0.13-2.02-0.38c-0.6-0.25-1.04-0.58-1.32-0.97
		c-0.28-0.4-0.47-0.94-0.58-1.62c-0.09-0.48-0.13-1.46-0.13-2.92v-6.83h-1.9v-3.3h1.9v-3.11l4.16-2.42v5.53H1125.88z"/>
	<path d="M1129.36,29.62v-3.83h4.14v3.83H1129.36z M1129.36,47.41V31.75h4.14v15.67H1129.36z"/>
	<path d="M1137.4,39.36c0-1.38,0.34-2.71,1.02-4c0.68-1.29,1.64-2.27,2.88-2.95c1.24-0.68,2.63-1.02,4.17-1.02
		c2.37,0,4.31,0.77,5.83,2.31s2.27,3.48,2.27,5.83c0,2.37-0.77,4.33-2.29,5.89c-1.53,1.56-3.46,2.34-5.78,2.34
		c-1.44,0-2.81-0.33-4.11-0.97c-1.3-0.65-2.29-1.6-2.97-2.85S1137.4,41.16,1137.4,39.36z M1141.64,39.58c0,1.55,0.37,2.74,1.11,3.57
		s1.65,1.24,2.73,1.24c1.08,0,1.99-0.41,2.72-1.24c0.73-0.83,1.1-2.03,1.1-3.6c0-1.53-0.37-2.71-1.1-3.54
		c-0.73-0.83-1.64-1.24-2.72-1.24c-1.08,0-1.99,0.41-2.73,1.24S1141.64,38.03,1141.64,39.58z"/>
	<path d="M1171.66,47.41h-4.15v-8c0-1.69-0.09-2.79-0.27-3.28c-0.18-0.5-0.46-0.88-0.86-1.16c-0.4-0.28-0.88-0.41-1.44-0.41
		c-0.72,0-1.36,0.2-1.93,0.59s-0.96,0.92-1.17,1.56c-0.21,0.65-0.32,1.85-0.32,3.6v7.1h-4.15V31.75h3.85v2.3
		c1.37-1.77,3.09-2.66,5.16-2.66c0.92,0,1.75,0.17,2.51,0.49c0.76,0.33,1.33,0.75,1.72,1.26c0.39,0.51,0.66,1.09,0.81,1.74
		c0.15,0.65,0.23,1.58,0.23,2.79V47.41z"/>
</g>
<g>
	<path class="st4" d="M579.21,80.9l2.68,0.68c-0.56,2.2-1.57,3.88-3.04,5.04c-1.46,1.16-3.25,1.74-5.36,1.74
		c-2.19,0-3.96-0.44-5.33-1.33c-1.37-0.89-2.41-2.18-3.13-3.87c-0.71-1.69-1.07-3.5-1.07-5.43c0-2.11,0.4-3.95,1.21-5.53
		c0.81-1.57,1.95-2.77,3.44-3.58c1.49-0.82,3.13-1.22,4.92-1.22c2.03,0,3.73,0.52,5.12,1.55c1.38,1.03,2.35,2.48,2.89,4.36
		l-2.64,0.62c-0.47-1.47-1.15-2.55-2.05-3.22s-2.02-1.01-3.37-1.01c-1.56,0-2.86,0.37-3.91,1.12c-1.05,0.75-1.78,1.75-2.21,3.01
		s-0.64,2.56-0.64,3.89c0,1.72,0.25,3.23,0.75,4.51c0.5,1.29,1.28,2.25,2.34,2.88s2.21,0.95,3.44,0.95c1.5,0,2.78-0.43,3.82-1.3
		C578.14,83.89,578.84,82.6,579.21,80.9z"/>
	<path class="st4" d="M585.24,78.13c0-3.37,0.9-6,2.71-7.9c1.81-1.9,4.14-2.86,7-2.86c1.87,0,3.56,0.45,5.06,1.34
		c1.5,0.89,2.65,2.14,3.44,3.74s1.18,3.41,1.18,5.44c0,2.06-0.42,3.9-1.25,5.52c-0.83,1.62-2,2.85-3.53,3.69
		c-1.52,0.83-3.16,1.25-4.92,1.25c-1.91,0-3.61-0.46-5.12-1.38c-1.5-0.92-2.64-2.18-3.42-3.78
		C585.62,81.6,585.24,79.91,585.24,78.13z M588,78.17c0,2.44,0.66,4.37,1.97,5.77c1.31,1.41,2.96,2.11,4.94,2.11
		c2.02,0,3.68-0.71,4.99-2.13c1.3-1.42,1.96-3.43,1.96-6.04c0-1.65-0.28-3.09-0.84-4.32c-0.56-1.23-1.37-2.18-2.45-2.86
		s-2.28-1.02-3.62-1.02c-1.9,0-3.53,0.65-4.9,1.96S588,75.12,588,78.17z"/>
	<path class="st4" d="M608.9,88.01V67.73h2.75l10.65,15.92V67.73h2.57v20.27h-2.75l-10.65-15.93v15.93H608.9z"/>
	<path class="st4" d="M629.32,81.49l2.53-0.22c0.12,1.01,0.4,1.85,0.84,2.5c0.44,0.65,1.12,1.18,2.04,1.58s1.96,0.6,3.11,0.6
		c1.02,0,1.93-0.15,2.71-0.46c0.78-0.3,1.37-0.72,1.75-1.25c0.38-0.53,0.57-1.11,0.57-1.74c0-0.64-0.18-1.19-0.55-1.67
		c-0.37-0.47-0.98-0.87-1.83-1.2c-0.54-0.21-1.75-0.54-3.61-0.99s-3.17-0.87-3.91-1.27c-0.97-0.51-1.69-1.14-2.17-1.89
		c-0.47-0.75-0.71-1.59-0.71-2.52c0-1.02,0.29-1.98,0.87-2.87s1.43-1.57,2.54-2.03c1.12-0.46,2.36-0.69,3.72-0.69
		c1.5,0,2.83,0.24,3.98,0.73c1.15,0.48,2.03,1.2,2.65,2.14c0.62,0.94,0.95,2.01,1,3.2l-2.57,0.19c-0.14-1.28-0.61-2.25-1.4-2.9
		c-0.8-0.65-1.98-0.98-3.53-0.98c-1.62,0-2.81,0.3-3.55,0.89s-1.11,1.31-1.11,2.15c0,0.73,0.26,1.33,0.79,1.8
		c0.52,0.47,1.87,0.95,4.05,1.45c2.18,0.49,3.68,0.92,4.49,1.29c1.18,0.54,2.05,1.23,2.61,2.07c0.56,0.83,0.84,1.8,0.84,2.88
		c0,1.08-0.31,2.1-0.93,3.05c-0.62,0.95-1.51,1.7-2.66,2.23c-1.16,0.53-2.46,0.79-3.91,0.79c-1.83,0-3.37-0.27-4.61-0.8
		c-1.24-0.54-2.21-1.34-2.92-2.41C629.73,84.06,629.36,82.85,629.32,81.49z"/>
	<path class="st4" d="M650.03,88.01V67.73h14.66v2.39h-11.98v6.21h11.22v2.38h-11.22v6.9h12.45v2.39H650.03z"/>
	<path class="st4" d="M669.76,88.01V67.73h8.99c1.81,0,3.18,0.18,4.12,0.55s1.69,1.01,2.25,1.93c0.56,0.92,0.84,1.94,0.84,3.06
		c0,1.44-0.47,2.65-1.4,3.64c-0.93,0.99-2.37,1.61-4.31,1.88c0.71,0.34,1.25,0.68,1.62,1.01c0.78,0.72,1.53,1.62,2.23,2.7l3.53,5.52
		h-3.38l-2.68-4.22c-0.78-1.22-1.43-2.15-1.94-2.79c-0.51-0.65-0.96-1.1-1.36-1.36c-0.4-0.26-0.81-0.44-1.22-0.54
		c-0.3-0.06-0.8-0.1-1.49-0.1h-3.11v9H669.76z M672.44,76.68h5.77c1.23,0,2.18-0.13,2.88-0.38c0.69-0.25,1.22-0.66,1.58-1.22
		s0.54-1.16,0.54-1.82c0-0.96-0.35-1.75-1.04-2.37c-0.7-0.62-1.8-0.93-3.3-0.93h-6.42V76.68z"/>
	<path class="st4" d="M696.31,88.01l-7.86-20.27h2.9l5.27,14.73c0.42,1.18,0.78,2.29,1.06,3.32c0.31-1.11,0.68-2.21,1.09-3.32
		l5.48-14.73H707l-7.94,20.27H696.31z"/>
	<path class="st4" d="M710.31,88.01V67.73h14.66v2.39h-11.98v6.21h11.22v2.38h-11.22v6.9h12.45v2.39H710.31z"/>
	<path class="st4" d="M730.38,88.01v-2.83h2.83v2.83H730.38z"/>
	<path class="st4" d="M747.43,88.01V67.73h7.65c1.35,0,2.37,0.06,3.08,0.19c1,0.17,1.83,0.48,2.5,0.95
		c0.67,0.47,1.21,1.12,1.63,1.96s0.62,1.76,0.62,2.77c0,1.72-0.55,3.18-1.65,4.38c-1.1,1.19-3.08,1.79-5.95,1.79h-5.2v8.24H747.43z
		 M750.11,77.37h5.24c1.73,0,2.96-0.32,3.69-0.97c0.73-0.64,1.09-1.55,1.09-2.72c0-0.85-0.21-1.57-0.64-2.18s-0.99-1-1.69-1.2
		c-0.45-0.12-1.29-0.18-2.5-0.18h-5.19V77.37z"/>
	<path class="st4" d="M767.21,88.01V67.73h8.99c1.81,0,3.18,0.18,4.12,0.55s1.69,1.01,2.25,1.93c0.56,0.92,0.84,1.94,0.84,3.06
		c0,1.44-0.47,2.65-1.4,3.64c-0.93,0.99-2.37,1.61-4.31,1.88c0.71,0.34,1.25,0.68,1.62,1.01c0.78,0.72,1.53,1.62,2.23,2.7l3.53,5.52
		h-3.38l-2.68-4.22c-0.78-1.22-1.43-2.15-1.94-2.79c-0.51-0.65-0.96-1.1-1.36-1.36c-0.4-0.26-0.81-0.44-1.22-0.54
		c-0.3-0.06-0.8-0.1-1.49-0.1h-3.11v9H767.21z M769.9,76.68h5.77c1.23,0,2.18-0.13,2.88-0.38c0.69-0.25,1.22-0.66,1.58-1.22
		s0.54-1.16,0.54-1.82c0-0.96-0.35-1.75-1.04-2.37c-0.7-0.62-1.8-0.93-3.3-0.93h-6.42V76.68z"/>
	<path class="st4" d="M787.66,78.13c0-3.37,0.9-6,2.71-7.9c1.81-1.9,4.14-2.86,7-2.86c1.87,0,3.56,0.45,5.06,1.34
		c1.5,0.89,2.65,2.14,3.44,3.74s1.18,3.41,1.18,5.44c0,2.06-0.42,3.9-1.25,5.52c-0.83,1.62-2,2.85-3.53,3.69
		c-1.52,0.83-3.16,1.25-4.92,1.25c-1.91,0-3.61-0.46-5.12-1.38c-1.5-0.92-2.64-2.18-3.42-3.78
		C788.05,81.6,787.66,79.91,787.66,78.13z M790.43,78.17c0,2.44,0.66,4.37,1.97,5.77c1.31,1.41,2.96,2.11,4.94,2.11
		c2.02,0,3.68-0.71,4.99-2.13c1.3-1.42,1.96-3.43,1.96-6.04c0-1.65-0.28-3.09-0.84-4.32c-0.56-1.23-1.37-2.18-2.45-2.86
		s-2.28-1.02-3.62-1.02c-1.9,0-3.53,0.65-4.9,1.96S790.43,75.12,790.43,78.17z"/>
	<path class="st4" d="M816.52,88.01V70.12h-6.68v-2.39h16.07v2.39h-6.71v17.88H816.52z"/>
	<path class="st4" d="M829.56,88.01V67.73h14.66v2.39h-11.98v6.21h11.22v2.38h-11.22v6.9h12.45v2.39H829.56z"/>
	<path class="st4" d="M863.71,80.9l2.68,0.68c-0.56,2.2-1.57,3.88-3.04,5.04c-1.46,1.16-3.25,1.74-5.36,1.74
		c-2.19,0-3.96-0.44-5.33-1.33c-1.37-0.89-2.41-2.18-3.13-3.87c-0.71-1.69-1.07-3.5-1.07-5.43c0-2.11,0.4-3.95,1.21-5.53
		c0.81-1.57,1.95-2.77,3.44-3.58c1.49-0.82,3.13-1.22,4.92-1.22c2.03,0,3.73,0.52,5.12,1.55c1.38,1.03,2.35,2.48,2.89,4.36
		l-2.64,0.62c-0.47-1.47-1.15-2.55-2.05-3.22s-2.02-1.01-3.37-1.01c-1.56,0-2.86,0.37-3.91,1.12c-1.05,0.75-1.78,1.75-2.21,3.01
		s-0.64,2.56-0.64,3.89c0,1.72,0.25,3.23,0.75,4.51c0.5,1.29,1.28,2.25,2.34,2.88s2.21,0.95,3.44,0.95c1.5,0,2.78-0.43,3.82-1.3
		C862.64,83.89,863.35,82.6,863.71,80.9z"/>
	<path class="st4" d="M875.71,88.01V70.12h-6.68v-2.39h16.07v2.39h-6.71v17.88H875.71z"/>
	<path class="st4" d="M885.95,88.01v-2.83h2.83v2.83H885.95z"/>
	<path class="st4" d="M903.06,88.01V67.73h14.66v2.39h-11.98v6.21h11.22v2.38h-11.22v6.9h12.45v2.39H903.06z"/>
	<path class="st4" d="M922.71,88.01V67.73h2.75l10.65,15.92V67.73h2.57v20.27h-2.75l-10.65-15.93v15.93H922.71z"/>
	<path class="st4" d="M942.68,82.25l2.42-0.33c0.06,1.55,0.35,2.61,0.87,3.18c0.52,0.57,1.23,0.86,2.14,0.86
		c0.67,0,1.25-0.15,1.74-0.46c0.49-0.31,0.83-0.73,1.01-1.26s0.28-1.38,0.28-2.54V67.73h2.68v13.82c0,1.7-0.21,3.01-0.62,3.94
		c-0.41,0.93-1.06,1.64-1.95,2.13c-0.89,0.49-1.93,0.73-3.13,0.73c-1.78,0-3.14-0.51-4.09-1.54
		C943.09,85.79,942.64,84.27,942.68,82.25z"/>
	<path class="st4" d="M958.24,78.13c0-3.37,0.9-6,2.71-7.9c1.81-1.9,4.14-2.86,7-2.86c1.87,0,3.56,0.45,5.06,1.34
		c1.5,0.89,2.65,2.14,3.44,3.74s1.18,3.41,1.18,5.44c0,2.06-0.42,3.9-1.25,5.52c-0.83,1.62-2,2.85-3.53,3.69
		c-1.52,0.83-3.16,1.25-4.92,1.25c-1.91,0-3.61-0.46-5.12-1.38c-1.5-0.92-2.64-2.18-3.42-3.78
		C958.63,81.6,958.24,79.91,958.24,78.13z M961.01,78.17c0,2.44,0.66,4.37,1.97,5.77c1.31,1.41,2.96,2.11,4.94,2.11
		c2.02,0,3.68-0.71,4.99-2.13c1.3-1.42,1.96-3.43,1.96-6.04c0-1.65-0.28-3.09-0.84-4.32c-0.56-1.23-1.37-2.18-2.45-2.86
		s-2.28-1.02-3.62-1.02c-1.9,0-3.53,0.65-4.9,1.96S961.01,75.12,961.01,78.17z"/>
	<path class="st4" d="M987.65,88.01v-8.59l-7.81-11.69h3.26l4,6.11c0.74,1.14,1.42,2.29,2.06,3.43c0.61-1.06,1.35-2.25,2.21-3.58
		l3.93-5.96h3.13l-8.09,11.69v8.59H987.65z"/>
	<path class="st4" d="M998.42,88.01v-2.83h2.83v2.83H998.42z"/>
</g>
</svg>
